<svg width="120" height="80" viewBox="0 0 120 80" fill="none" xmlns="http://www.w3.org/2000/svg">
<g clip-path="url(#clip0_661_1755)">
<path d="M80.09 67.3476C77.5945 67.3476 74.933 66.8424 72.3475 65.8123C66.0218 63.299 61.4198 58.0656 60.8962 52.7912C60.8735 52.552 60.8626 52.3367 60.8529 52.1106C60.8518 52.076 60.8496 52.0349 60.8496 52.0003V51.3262C60.8496 50.1079 61.8394 49.1201 63.0601 49.1201C64.2808 49.1201 65.2705 50.1079 65.2705 51.3262V51.9494C65.277 52.0944 65.2835 52.2296 65.2965 52.3703C65.5979 55.4116 68.68 59.6063 73.9844 61.7139C78.6493 63.5738 83.6274 63.3066 86.0894 61.0659C86.1327 61.0269 86.1772 60.9901 86.2227 60.9533C87.6917 59.814 88.7129 57.8471 88.9546 55.6908C89.0901 54.4801 90.1786 53.6048 91.396 53.7433C92.6091 53.8785 93.4829 54.9691 93.3474 56.1809C92.9744 59.5144 91.3927 62.4984 89.0023 64.3853C86.8135 66.3403 83.6155 67.3476 80.0879 67.3476H80.09Z" fill="#909090"/>
<path d="M117.79 80H18.3649C17.966 80 17.5735 79.8918 17.2309 79.6884L1.07693 70.0569C0.441658 69.6782 0.0383765 69.0074 0.00260153 68.2706C-0.0331734 67.5338 0.30181 66.8273 0.896975 66.3891L16.4818 54.8956C16.8363 54.6338 17.2613 54.4845 17.7014 54.4661L34.8745 53.7325C36.0345 53.6774 37.0373 54.5397 37.1663 55.6919C37.4069 57.8472 38.4281 59.8142 39.8982 60.9534C39.9437 60.9891 39.9881 61.0259 40.0315 61.066C42.4935 63.3077 47.4705 63.5739 52.1343 61.7151C57.4409 59.6064 60.5219 55.4117 60.8254 52.3563C60.8373 52.2286 60.8438 52.0923 60.8493 51.9506V51.3252C60.8493 50.107 61.839 49.1191 63.0597 49.1191C64.2804 49.1191 65.2702 50.107 65.2702 51.3252V51.9993C65.2702 52.0317 65.2702 52.0642 65.268 52.0967C65.2583 52.326 65.2474 52.5446 65.2257 52.7729C64.701 58.0636 60.0991 63.2969 53.7713 65.8114C47.5334 68.2966 40.8554 67.721 37.1164 64.3821C35.2257 62.8912 33.8414 60.7132 33.1606 58.2194L18.5644 58.8426L6.19275 67.9655L18.9731 75.5856H115.577V57.8071H92.1187C90.8981 57.8071 89.9083 56.8193 89.9083 55.6011C89.9083 54.3828 90.8981 53.395 92.1187 53.395H117.788C119.008 53.395 119.998 54.3828 119.998 55.6011V77.7906C119.998 79.0089 119.008 79.9967 117.788 79.9967L117.79 80Z" fill="#909090"/>
<path d="M108.025 80.0001C106.804 80.0001 105.814 79.0123 105.814 77.794V58.3775C105.814 57.1592 106.804 56.1714 108.025 56.1714C109.246 56.1714 110.235 57.1592 110.235 58.3775V77.794C110.235 79.0123 109.246 80.0001 108.025 80.0001Z" fill="#909090"/>
<path d="M50.9775 37.8721C50.9775 40.4309 48.8993 42.505 46.3354 42.505C43.7716 42.505 41.6934 40.4309 41.6934 37.8721C41.6934 35.3133 43.7716 33.2393 46.3354 33.2393C48.8993 33.2393 50.9775 35.3133 50.9775 37.8721Z" fill="#909090"/>
<path d="M84.3564 37.8721C84.3564 40.4309 82.2782 42.505 79.7143 42.505C77.1505 42.505 75.0723 40.4309 75.0723 37.8721C75.0723 35.3133 77.1505 33.2393 79.7143 33.2393C82.2782 33.2393 84.3564 35.3133 84.3564 37.8721Z" fill="#909090"/>
<path d="M68.9935 45.7788C68.9935 49.069 66.3213 51.7349 63.0246 51.7349C59.7278 51.7349 57.0566 49.0679 57.0566 45.7788C57.0566 42.4897 59.7289 42.2495 63.0246 42.2495C66.3202 42.2495 68.9935 42.4897 68.9935 45.7788Z" fill="#909090"/>
<path d="M10.1282 61.8135H13.8C13.8932 61.8135 13.968 61.8881 13.968 61.9812V73.6337H9.79102C7.67162 73.6337 5.95117 71.9167 5.95117 69.8015V65.9822C5.95117 63.682 7.82231 61.8135 10.1282 61.8135Z" fill="#909090"/>
<path d="M91.3547 0.566854C93.9532 -0.864558 97.289 0.722654 100.59 1.91604C105.164 3.56925 110.74 6.34443 112.94 10.9697C117.017 19.5485 107.663 26.7986 100.304 28.8326C89.877 31.6359 86.589 23.12 86.9142 14.4687C87.0562 10.6657 87.2189 6.52187 89.0455 3.0986C89.7155 1.84355 90.495 1.03966 91.3547 0.566854Z" fill="#909090"/>
<path d="M35.2655 0.566854C32.667 -0.864558 29.3312 0.722654 26.0302 1.91604C21.4564 3.56925 15.8799 6.34443 13.6802 10.9697C9.60298 19.5485 18.9576 26.7986 26.3164 28.8326C36.7432 31.6359 40.0312 23.12 39.706 14.4687C39.5639 10.6657 39.4013 6.52187 37.5746 3.0986C36.9047 1.84355 36.1252 1.03966 35.2655 0.566854Z" fill="#909090"/>
</g>
<defs>
<clipPath id="clip0_661_1755">
<rect width="120" height="80" fill="white"/>
</clipPath>
</defs>
</svg>
