<svg width="130" height="130" viewBox="0 0 130 130" fill="none" xmlns="http://www.w3.org/2000/svg">
<path d="M41.59 65.564L39.504 61.406H43.662L41.59 65.564ZM48.7915 69.162V68.21L52.7675 64.22C54.1955 62.778 54.7555 61.868 54.7555 61.07C54.7555 59.754 53.8595 58.984 52.4595 58.984C50.9475 58.984 50.1355 60.132 50.1355 61.378H48.6655C48.6655 59.348 50.1355 57.682 52.4735 57.682C54.7275 57.682 56.2115 59.04 56.2115 61.056C56.2115 62.26 55.5255 63.282 53.8455 65.004L50.9055 67.888H56.5895V69.162H48.7915ZM61.857 69.414C59.435 69.414 57.979 67.944 57.895 65.998H59.351C59.393 67.202 60.275 68.14 61.857 68.14C63.411 68.14 64.377 67.048 64.377 65.578C64.377 64.136 63.369 63.072 61.885 63.072C60.653 63.072 59.939 63.702 59.561 64.402H58.119L58.441 57.948H65.245V59.222H59.785L59.589 62.89C60.009 62.372 60.835 61.812 62.123 61.812C64.251 61.812 65.819 63.338 65.819 65.578C65.819 67.804 64.209 69.414 61.857 69.414ZM73.8616 63.002C72.2516 63.002 71.0896 61.854 71.0896 60.328C71.0896 58.802 72.2516 57.654 73.8616 57.654C75.4716 57.654 76.6336 58.802 76.6336 60.328C76.6336 61.854 75.4716 63.002 73.8616 63.002ZM72.8676 69.162L80.2736 57.948H81.6456L74.2396 69.162H72.8676ZM73.8616 61.826C74.7576 61.826 75.3736 61.196 75.3736 60.328C75.3736 59.46 74.7576 58.844 73.8616 58.844C72.9656 58.844 72.3356 59.46 72.3356 60.328C72.3356 61.196 72.9656 61.826 73.8616 61.826ZM80.6516 69.442C79.0416 69.442 77.8796 68.294 77.8796 66.768C77.8796 65.242 79.0416 64.094 80.6516 64.094C82.2476 64.094 83.4236 65.242 83.4236 66.768C83.4236 68.294 82.2476 69.442 80.6516 69.442ZM80.6516 68.266C81.5336 68.266 82.1636 67.636 82.1636 66.768C82.1636 65.9 81.5336 65.27 80.6516 65.27C79.7556 65.27 79.1256 65.9 79.1256 66.768C79.1256 67.636 79.7556 68.266 80.6516 68.266Z" fill="#ED4848"/>
<path d="M130 65C130 100.899 100.899 130 65 130C29.1015 130 0 100.899 0 65C0 29.1015 29.1015 0 65 0C100.899 0 130 29.1015 130 65ZM14.3207 65C14.3207 92.9894 37.0106 115.679 65 115.679C92.9894 115.679 115.679 92.9894 115.679 65C115.679 37.0106 92.9894 14.3207 65 14.3207C37.0106 14.3207 14.3207 37.0106 14.3207 65Z" fill="#FFEAE5"/>
<path d="M122.841 65C126.795 65 130.041 68.2149 129.606 72.1448C128.464 82.4731 124.857 92.4143 119.046 101.112C111.903 111.801 101.752 120.132 89.8744 125.052C77.9972 129.972 64.9279 131.259 52.3191 128.751C39.7104 126.243 28.1285 120.052 19.0381 110.962C9.94765 101.872 3.757 90.2896 1.24896 77.6809C-1.25908 65.0721 0.0281343 52.0028 4.94783 40.1256C9.86753 28.2484 18.1987 18.0968 28.8879 10.9545C37.5857 5.1428 47.5269 1.536 57.8552 0.393821C61.7851 -0.040778 65 3.20525 65 7.15913C65 11.113 61.779 14.2664 57.8645 14.823C50.3734 15.8883 43.1842 18.6224 36.8427 22.8597C28.5082 28.4286 22.0122 36.3441 18.1762 45.6049C14.3402 54.8658 13.3365 65.0562 15.2921 74.8875C17.2477 84.7188 22.0746 93.7494 29.1626 100.837C36.2506 107.925 45.2812 112.752 55.1125 114.708C64.9438 116.663 75.1342 115.66 84.3951 111.824C93.6559 107.988 101.571 101.492 107.14 93.1573C111.378 86.8158 114.112 79.6266 115.177 72.1355C115.734 68.221 118.887 65 122.841 65Z" fill="#FFBFBB"/>
</svg>
