<svg width="160" height="160" viewBox="0 0 160 160" fill="none" xmlns="http://www.w3.org/2000/svg">
<g clip-path="url(#clip0_600_4420)">
<path d="M160 80C160 35.8172 124.183 0 80 0C35.8172 0 0 35.8172 0 80C0 124.183 35.8172 160 80 160C124.183 160 160 124.183 160 80Z" fill="#4F4F4F"/>
<mask id="mask0_600_4420" style="mask-type:luminance" maskUnits="userSpaceOnUse" x="13" y="35" width="130" height="87">
<path d="M142.207 35.8398H13.9531V121.6H142.207V35.8398Z" fill="white"/>
</mask>
<g mask="url(#mask0_600_4420)">
<path d="M99.552 108.038C96.8849 108.038 94.0403 107.496 91.2769 106.392C84.5162 103.698 79.5977 98.0877 79.0381 92.4334C79.0138 92.1772 79.0021 91.9464 78.9917 91.7039C78.9906 91.6668 78.9883 91.6228 78.9883 91.5857V90.863C78.9883 89.557 80.0461 88.498 81.3508 88.498C82.6554 88.498 83.7133 89.557 83.7133 90.863V91.5311C83.7202 91.6865 83.7271 91.8315 83.7411 91.9823C84.0631 95.2426 87.3572 99.7393 93.0264 101.999C98.0122 103.992 103.333 103.706 105.964 101.304C106.01 101.262 106.058 101.223 106.106 101.183C107.677 99.962 108.768 97.8534 109.026 95.5419C109.171 94.244 110.334 93.3056 111.636 93.4541C112.932 93.5991 113.866 94.7683 113.721 96.0672C113.323 99.6407 111.632 102.84 109.077 104.862C106.738 106.958 103.32 108.038 99.5497 108.038H99.552Z" fill="#FF9526"/>
<path d="M139.845 121.6H33.5812C33.1549 121.6 32.7354 121.484 32.3692 121.266L15.1042 110.941C14.4251 110.536 13.9942 109.816 13.9559 109.027C13.9177 108.237 14.2758 107.479 14.9118 107.01L31.5687 94.6885C31.9476 94.4079 32.4017 94.2478 32.8721 94.2281L51.2264 93.4418C52.4661 93.3825 53.5378 94.3069 53.6757 95.5422C53.933 97.8526 55.0244 99.9612 56.5955 101.183C56.6443 101.221 56.6918 101.26 56.7381 101.303C59.3694 103.706 64.6887 103.992 69.6733 101.999C75.345 99.7385 78.6377 95.2418 78.9622 91.9664C78.9749 91.8295 78.9819 91.6834 78.9877 91.5315V90.861C78.9877 89.555 80.0455 88.4961 81.3502 88.4961C82.6548 88.4961 83.7127 89.555 83.7127 90.861V91.5836C83.7127 91.6184 83.7127 91.6532 83.7104 91.688C83.6999 91.9339 83.6884 92.1682 83.6652 92.4129C83.1044 98.0846 78.1859 103.695 71.4229 106.39C64.756 109.054 57.6186 108.437 53.6225 104.858C51.6017 103.26 50.1222 100.925 49.3945 98.2516L33.7944 98.9196L20.5718 108.699L34.2312 116.868H137.48V97.8096H112.408C111.103 97.8096 110.045 96.7507 110.045 95.4447C110.045 94.1387 111.103 93.0798 112.408 93.0798H139.842C141.148 93.0798 142.205 94.1387 142.205 95.4447V119.232C142.205 120.538 141.148 121.597 139.842 121.597L139.845 121.6Z" fill="#FF9526"/>
<path d="M129.408 121.601C128.102 121.601 127.045 120.542 127.045 119.236V98.4216C127.045 97.1156 128.102 96.0566 129.408 96.0566C130.712 96.0566 131.77 97.1156 131.77 98.4216V119.236C131.77 120.542 130.712 121.601 129.408 121.601Z" fill="#FF9526"/>
<path d="M68.4365 76.4391C68.4365 79.1821 66.2153 81.4056 63.4751 81.4056C60.7349 81.4056 58.5137 79.1821 58.5137 76.4391C58.5137 73.696 60.7349 71.4727 63.4751 71.4727C66.2153 71.4727 68.4365 73.696 68.4365 76.4391Z" fill="#FF9526"/>
<path d="M104.112 76.4391C104.112 79.1821 101.891 81.4056 99.1509 81.4056C96.4106 81.4056 94.1895 79.1821 94.1895 76.4391C94.1895 73.696 96.4106 71.4727 99.1509 71.4727C101.891 71.4727 104.112 73.696 104.112 76.4391Z" fill="#FF9526"/>
<path d="M87.6915 84.9162C87.6915 88.4434 84.8354 91.3013 81.312 91.3013C77.7885 91.3013 74.9336 88.4423 74.9336 84.9162C74.9336 81.3904 77.7897 81.1328 81.312 81.1328C84.8343 81.1328 87.6915 81.3904 87.6915 84.9162Z" fill="#FF9526"/>
<path d="M24.7768 102.104H28.7012C28.8008 102.104 28.8808 102.184 28.8808 102.283V114.775H24.4164C22.1513 114.775 20.3125 112.934 20.3125 110.667V106.572C20.3125 104.107 22.3124 102.104 24.7768 102.104Z" fill="#FF9526"/>
<path d="M111.591 36.448C114.368 34.9136 117.934 36.6151 121.462 37.8943C126.35 39.6666 132.311 42.6416 134.661 47.5999C139.019 56.7963 129.021 64.5685 121.156 66.749C110.012 69.754 106.498 60.6249 106.845 51.3508C106.997 47.274 107.171 42.8318 109.123 39.162C109.839 37.8166 110.672 36.9549 111.591 36.448Z" fill="#FF9526"/>
<path d="M51.6464 36.448C48.8692 34.9136 45.304 36.6151 41.776 37.8943C36.8875 39.6666 30.9275 42.6416 28.5765 47.5999C24.2189 56.7963 34.2168 64.5685 42.0818 66.749C53.2257 69.754 56.7399 60.6249 56.3923 51.3508C56.2405 47.274 56.0668 42.8318 54.1144 39.162C53.3984 37.8166 52.5654 36.9549 51.6464 36.448Z" fill="#FF9526"/>
</g>
</g>
<defs>
<clipPath id="clip0_600_4420">
<rect width="160" height="160" fill="white"/>
</clipPath>
</defs>
</svg>
