<svg width="160" height="160" viewBox="0 0 160 160" fill="none" xmlns="http://www.w3.org/2000/svg">
<g clip-path="url(#clip0_491_1083)">
<path d="M160 80C160 35.8172 124.183 0 80 0C35.8172 0 0 35.8172 0 80C0 124.183 35.8172 160 80 160C124.183 160 160 124.183 160 80Z" fill="#FFFDF7"/>
<mask id="mask0_491_1083" style="mask-type:luminance" maskUnits="userSpaceOnUse" x="13" y="35" width="130" height="87">
<path d="M142.207 35.8398H13.9531V121.6H142.207V35.8398Z" fill="white"/>
</mask>
<g mask="url(#mask0_491_1083)">
<path d="M99.552 108.037C96.8849 108.037 94.0403 107.495 91.2769 106.391C84.5162 103.696 79.5977 98.0862 79.0381 92.4319C79.0138 92.1757 79.0021 91.9449 78.9917 91.7025C78.9906 91.6654 78.9883 91.6213 78.9883 91.5842V90.8615C78.9883 89.5555 80.0461 88.4966 81.3508 88.4966C82.6554 88.4966 83.7133 89.5555 83.7133 90.8615V91.5297C83.7202 91.6851 83.7271 91.8301 83.7411 91.9809C84.0631 95.2412 87.3572 99.7378 93.0264 101.997C98.0122 103.991 103.333 103.705 105.964 101.302C106.01 101.261 106.058 101.221 106.106 101.182C107.677 99.9605 108.768 97.852 109.026 95.5404C109.171 94.2425 110.334 93.3041 111.636 93.4526C112.932 93.5976 113.866 94.7668 113.721 96.0657C113.323 99.6392 111.632 102.838 109.077 104.861C106.738 106.957 103.32 108.037 99.5497 108.037H99.552Z" fill="#FF9526"/>
<path d="M139.845 121.6H33.5812C33.1549 121.6 32.7354 121.484 32.3692 121.266L15.1042 110.941C14.4251 110.535 13.9942 109.816 13.9559 109.026C13.9177 108.236 14.2758 107.479 14.9118 107.009L31.5687 94.688C31.9476 94.4074 32.4017 94.2473 32.8721 94.2276L51.2264 93.4413C52.4661 93.382 53.5378 94.3064 53.6757 95.5417C53.933 97.8521 55.0244 99.9607 56.5955 101.182C56.6443 101.22 56.6918 101.26 56.7381 101.303C59.3694 103.706 64.6887 103.991 69.6733 101.999C75.345 99.738 78.6377 95.2413 78.9622 91.9659C78.9749 91.829 78.9819 91.6829 78.9877 91.531V90.8605C78.9877 89.5546 80.0455 88.4956 81.3502 88.4956C82.6548 88.4956 83.7127 89.5546 83.7127 90.8605V91.5831C83.7127 91.6179 83.7127 91.6527 83.7104 91.6875C83.6999 91.9334 83.6884 92.1677 83.6652 92.4124C83.1044 98.0841 78.1859 103.694 71.4229 106.39C64.756 109.054 57.6186 108.437 53.6225 104.858C51.6017 103.259 50.1222 100.925 49.3945 98.2511L33.7944 98.9192L20.5718 108.699L34.2312 116.868H137.48V97.8091H112.408C111.103 97.8091 110.045 96.7502 110.045 95.4442C110.045 94.1382 111.103 93.0793 112.408 93.0793H139.842C141.148 93.0793 142.205 94.1382 142.205 95.4442V119.231C142.205 120.537 141.148 121.596 139.842 121.596L139.845 121.6Z" fill="#FF9526"/>
<path d="M129.408 121.599C128.102 121.599 127.045 120.541 127.045 119.235V98.4201C127.045 97.1141 128.102 96.0552 129.408 96.0552C130.712 96.0552 131.77 97.1141 131.77 98.4201V119.235C131.77 120.541 130.712 121.599 129.408 121.599Z" fill="#FF9526"/>
<path d="M68.4365 76.4391C68.4365 79.1821 66.2153 81.4056 63.4751 81.4056C60.7349 81.4056 58.5137 79.1821 58.5137 76.4391C58.5137 73.696 60.7349 71.4727 63.4751 71.4727C66.2153 71.4727 68.4365 73.696 68.4365 76.4391Z" fill="#FF9526"/>
<path d="M104.112 76.4391C104.112 79.1821 101.891 81.4056 99.1509 81.4056C96.4106 81.4056 94.1895 79.1821 94.1895 76.4391C94.1895 73.696 96.4106 71.4727 99.1509 71.4727C101.891 71.4727 104.112 73.696 104.112 76.4391Z" fill="#FF9526"/>
<path d="M87.6915 84.9153C87.6915 88.4424 84.8354 91.3003 81.312 91.3003C77.7885 91.3003 74.9336 88.4413 74.9336 84.9153C74.9336 81.3894 77.7897 81.1318 81.312 81.1318C84.8343 81.1318 87.6915 81.3894 87.6915 84.9153Z" fill="#FF9526"/>
<path d="M24.7768 102.104H28.7012C28.8008 102.104 28.8808 102.184 28.8808 102.284V114.775H24.4164C22.1513 114.775 20.3125 112.935 20.3125 110.667V106.573C20.3125 104.107 22.3124 102.104 24.7768 102.104Z" fill="#FF9526"/>
<path d="M111.591 36.4475C114.368 34.9131 117.934 36.6146 121.462 37.8938C126.35 39.6661 132.311 42.6411 134.661 47.5994C139.019 56.7958 129.021 64.568 121.156 66.7485C110.012 69.7535 106.498 60.6244 106.845 51.3503C106.997 47.2735 107.171 42.8313 109.123 39.1615C109.839 37.8161 110.672 36.9544 111.591 36.4475Z" fill="#FF9526"/>
<path d="M51.6464 36.4475C48.8692 34.9131 45.304 36.6146 41.776 37.8938C36.8875 39.6661 30.9275 42.6411 28.5765 47.5994C24.2189 56.7958 34.2168 64.568 42.0818 66.7485C53.2257 69.7535 56.7399 60.6244 56.3923 51.3503C56.2405 47.2735 56.0668 42.8313 54.1144 39.1615C53.3984 37.8161 52.5654 36.9544 51.6464 36.4475Z" fill="#FF9526"/>
</g>
</g>
<defs>
<clipPath id="clip0_491_1083">
<rect width="160" height="160" fill="white"/>
</clipPath>
</defs>
</svg>
