<svg width="220" height="220" viewBox="0 0 220 220" fill="none" xmlns="http://www.w3.org/2000/svg">
<rect width="220" height="220" rx="12" fill="#E1E1E1"/>
<g clip-path="url(#clip0_491_273)">
<path d="M133.534 142.134C130.61 142.134 127.492 141.54 124.464 140.33C117.053 137.376 111.662 131.227 111.049 125.03C111.022 124.749 111.009 124.496 110.998 124.23C110.997 124.189 110.994 124.141 110.994 124.1V123.308C110.994 121.877 112.154 120.716 113.584 120.716C115.014 120.716 116.173 121.877 116.173 123.308V124.041C116.181 124.211 116.188 124.37 116.204 124.535C116.557 128.109 120.167 133.038 126.381 135.514C131.846 137.699 137.678 137.385 140.562 134.753C140.613 134.707 140.665 134.664 140.718 134.62C142.439 133.282 143.635 130.97 143.918 128.437C144.077 127.014 145.352 125.986 146.778 126.149C148.199 126.307 149.223 127.589 149.064 129.013C148.627 132.93 146.775 136.436 143.974 138.653C141.41 140.95 137.664 142.134 133.531 142.134H133.534Z" fill="#909090"/>
<path d="M177.699 157H61.2249C60.7575 157 60.2978 156.873 59.8965 156.634L40.9725 145.317C40.2283 144.872 39.7559 144.084 39.714 143.218C39.6721 142.352 40.0645 141.522 40.7617 141.007L59.0189 127.502C59.4342 127.195 59.9321 127.019 60.4477 126.998L80.5654 126.136C81.9243 126.071 83.099 127.084 83.2502 128.438C83.5321 130.97 84.7284 133.281 86.4505 134.62C86.5038 134.662 86.5559 134.705 86.6067 134.752C89.4908 137.386 95.3213 137.699 100.785 135.515C107.001 133.037 110.611 128.109 110.966 124.519C110.98 124.369 110.988 124.208 110.994 124.042V123.307C110.994 121.876 112.154 120.715 113.584 120.715C115.014 120.715 116.173 121.876 116.173 123.307V124.099C116.173 124.137 116.173 124.175 116.171 124.213C116.159 124.483 116.146 124.74 116.121 125.008C115.506 131.225 110.115 137.374 102.702 140.328C95.395 143.248 87.5719 142.572 83.1917 138.649C80.9769 136.897 79.3551 134.338 78.5576 131.408L61.4586 132.14L46.9656 142.859L61.9374 151.813H175.107V130.923H147.625C146.195 130.923 145.036 129.763 145.036 128.331C145.036 126.9 146.195 125.739 147.625 125.739H177.696C179.126 125.739 180.286 126.9 180.286 128.331V154.404C180.286 155.835 179.126 156.996 177.696 156.996L177.699 157Z" fill="#909090"/>
<path d="M166.259 157C164.829 157 163.67 155.839 163.67 154.408V131.593C163.67 130.162 164.829 129.001 166.259 129.001C167.689 129.001 168.849 130.162 168.849 131.593V154.408C168.849 155.839 167.689 157 166.259 157Z" fill="#909090"/>
<path d="M99.4288 107.5C99.4288 110.506 96.9943 112.943 93.9908 112.943C90.9873 112.943 88.5527 110.506 88.5527 107.5C88.5527 104.493 90.9873 102.056 93.9908 102.056C96.9943 102.056 99.4288 104.493 99.4288 107.5Z" fill="#909090"/>
<path d="M138.532 107.5C138.532 110.506 136.098 112.943 133.094 112.943C130.091 112.943 127.656 110.506 127.656 107.5C127.656 104.493 130.091 102.056 133.094 102.056C136.098 102.056 138.532 104.493 138.532 107.5Z" fill="#909090"/>
<path d="M120.535 116.79C120.535 120.656 117.404 123.789 113.542 123.789C109.68 123.789 106.551 120.655 106.551 116.79C106.551 112.926 109.681 112.644 113.542 112.644C117.403 112.644 120.535 112.926 120.535 116.79Z" fill="#909090"/>
<path d="M51.5749 135.631H55.8763C55.9855 135.631 56.0731 135.719 56.0731 135.828V149.52H51.1799C48.6971 149.52 46.6816 147.502 46.6816 145.017V140.529C46.6816 137.826 48.8736 135.631 51.5749 135.631Z" fill="#909090"/>
<path d="M146.729 63.6661C149.773 61.9842 153.681 63.8492 157.548 65.2514C162.906 67.194 169.439 70.4548 172.016 75.8895C176.792 85.9695 165.833 94.4884 157.213 96.8784C144.998 100.172 141.146 90.166 141.527 80.0009C141.694 75.5323 141.884 70.6633 144.024 66.6409C144.809 65.1663 145.722 64.2217 146.729 63.6661Z" fill="#909090"/>
<path d="M81.0254 63.6661C77.9812 61.9842 74.0735 63.8492 70.2064 65.2514C64.8484 67.194 58.3156 70.4548 55.7388 75.8895C50.9624 85.9695 61.9211 94.4884 70.5417 96.8784C82.7563 100.172 86.6082 90.166 86.2272 80.0009C86.0608 75.5323 85.8703 70.6633 83.7304 66.6409C82.9456 65.1663 82.0325 64.2217 81.0254 63.6661Z" fill="#909090"/>
</g>
<defs>
<clipPath id="clip0_491_273">
<rect width="140.577" height="94" fill="white" transform="translate(39.7109 63)"/>
</clipPath>
</defs>
</svg>
