<svg width="130" height="158" viewBox="0 0 130 158" fill="none" xmlns="http://www.w3.org/2000/svg">
<path d="M43.9791 72.984H52.2831V76.776H31.5471V72.984H39.8511V70.104C35.2911 69.528 32.3391 67.032 32.3391 63.624C32.3391 59.736 36.2031 57.024 41.9151 57.024C47.6271 57.024 51.4911 59.736 51.4911 63.624C51.4911 67.032 48.5391 69.528 43.9791 70.104V72.984ZM36.6351 63.624C36.6351 65.376 38.7951 66.576 41.9151 66.576C45.0351 66.576 47.1951 65.376 47.1951 63.624C47.1951 61.848 45.0351 60.672 41.9151 60.672C38.7951 60.672 36.6351 61.848 36.6351 63.624ZM59.913 56.88V61.008H74.361V64.032H55.881V56.88H59.913ZM75.369 64.896V67.848H54.633V64.896H75.369ZM74.169 68.712V74.16H59.817V74.928H74.385V77.496H55.857V72H70.209V71.256H55.809V68.712H74.169ZM97.591 57V77.496H93.535V57H97.591ZM84.823 57.144C88.615 57.144 91.351 59.784 91.351 63.792C91.351 67.8 88.615 70.44 84.823 70.44C81.007 70.44 78.271 67.8 78.271 63.792C78.271 59.784 81.007 57.144 84.823 57.144ZM84.823 60.768C83.191 60.768 82.183 62.064 82.183 63.792C82.183 65.544 83.191 66.816 84.823 66.816C86.431 66.816 87.463 65.544 87.463 63.792C87.463 62.064 86.431 60.768 84.823 60.768ZM92.359 75.672C91.087 76.248 88.927 76.536 86.887 76.536H77.719V72.744H87.055C88.951 72.744 91.087 72.504 92.359 71.928V75.672ZM120.293 93V98.16H105.989V98.88H120.509V101.208H102.077V96.072H116.381V95.352H102.029V93H120.293ZM121.541 101.904V104.592H100.805V101.904H121.541ZM120.341 105.288V110.424H105.941V111.144H120.557V113.496H102.029V108.336H116.429V107.616H101.981V105.288H120.341ZM20.5043 129H24.5603V141.432H20.5043V136.728H17.7923V133.248H20.5043V129ZM11.9363 137.616C10.3523 139.632 7.92828 141.072 5.02428 141.144V137.496C7.78428 137.304 9.51228 135.048 9.84828 132.648H5.31228V129.24H18.3683V132.648H13.9523C13.9043 133.272 13.7843 133.872 13.5923 134.472L19.1843 138.048L17.0483 140.976L11.9363 137.616ZM6.12828 145.632V142.152H24.5603V149.736H20.4323V145.632H6.12828ZM43.6142 129H47.6702V149.496H43.6142V140.52H40.9022C40.5422 146.208 38.1422 148.776 34.6142 148.776C30.7982 148.776 28.2542 145.752 28.2542 139.008C28.2542 132.264 30.7982 129.24 34.6142 129.24C37.9742 129.24 40.3262 131.568 40.8542 136.728H43.6142V129ZM34.6142 145.056C35.9342 145.056 36.9422 143.616 36.9422 139.008C36.9422 134.424 35.9342 132.96 34.6142 132.96C33.2702 132.96 32.2622 134.424 32.2622 139.008C32.2622 143.616 33.2702 145.056 34.6142 145.056ZM63.2682 144.984H71.5722V148.776H50.8362V144.984H59.1402V141.864H51.9642V129.48H55.9482V132.096H66.4602V129.48H70.4442V141.864H63.2682V144.984ZM55.9482 135.672V138.24H66.4602V135.672H55.9482ZM95.5701 136.488V140.424H93.1701V149.496H89.1141V129H93.1701V136.488H95.5701ZM80.6661 129.24C84.4821 129.24 87.0021 132.264 87.0021 139.008C87.0021 145.752 84.4821 148.776 80.6661 148.776C76.8501 148.776 74.3061 145.752 74.3061 139.008C74.3061 132.264 76.8501 129.24 80.6661 129.24ZM80.6661 145.056C81.9861 145.056 82.9941 143.616 82.9941 139.008C82.9941 134.424 81.9861 132.96 80.6661 132.96C79.3221 132.96 78.3141 134.424 78.3141 139.008C78.3141 143.616 79.3221 145.056 80.6661 145.056ZM113.736 145.056H117.744V148.776H97.008V145.056H101.016V140.616C98.976 139.464 97.8 137.688 97.8 135.552C97.8 131.688 101.616 129.024 107.376 129.024C113.136 129.024 116.952 131.688 116.952 135.552C116.952 137.688 115.776 139.464 113.736 140.616V145.056ZM107.376 132.672C104.28 132.672 102.096 133.8 102.096 135.552C102.096 137.28 104.28 138.432 107.376 138.432C110.472 138.432 112.656 137.28 112.656 135.552C112.656 133.8 110.472 132.672 107.376 132.672ZM105.072 141.912V145.056H109.68V141.912C108.96 142.008 108.192 142.056 107.376 142.056C106.56 142.056 105.792 142.008 105.072 141.912ZM125.302 129.6L124.198 142.68H121.222L120.118 129.6H125.302ZM122.71 144.432C124.174 144.432 125.254 145.512 125.254 146.976C125.254 148.44 124.174 149.496 122.71 149.496C121.246 149.496 120.166 148.44 120.166 146.976C120.166 145.512 121.246 144.432 122.71 144.432Z" fill="#2B2926"/>
<path d="M21.5412 100.272V103.464H9.03716V93.24H21.5412V96.48H24.3252V93H28.3812V104.28H24.3252V100.272H21.5412ZM17.5332 100.128V96.576H13.0452V100.128H17.5332ZM19.2132 104.568C24.4452 104.568 28.5732 105.744 28.5732 109.152C28.5732 112.56 24.4452 113.736 19.2132 113.736C13.9812 113.736 9.85316 112.56 9.85316 109.152C9.85316 105.744 13.9812 104.568 19.2132 104.568ZM19.2132 110.496C21.9732 110.496 24.2052 110.136 24.2052 109.152C24.2052 108.192 21.9732 107.808 19.2132 107.808C16.4532 107.808 14.2212 108.192 14.2212 109.152C14.2212 110.136 16.4532 110.496 19.2132 110.496ZM44.6271 100.272V103.464H32.1231V93.24H44.6271V96.48H47.4111V93H51.4671V104.28H47.4111V100.272H44.6271ZM40.6191 100.128V96.576H36.1311V100.128H40.6191ZM42.2991 104.568C47.5311 104.568 51.6591 105.744 51.6591 109.152C51.6591 112.56 47.5311 113.736 42.2991 113.736C37.0671 113.736 32.9391 112.56 32.9391 109.152C32.9391 105.744 37.0671 104.568 42.2991 104.568ZM42.2991 110.496C45.0591 110.496 47.2911 110.136 47.2911 109.152C47.2911 108.192 45.0591 107.808 42.2991 107.808C39.5391 107.808 37.3071 108.192 37.3071 109.152C37.3071 110.136 39.5391 110.496 42.2991 110.496ZM74.457 93V103.032H70.401V93H74.457ZM61.353 93.024C65.385 93.024 67.953 95.04 67.953 97.992C67.953 100.968 65.385 102.96 61.353 102.96C57.321 102.96 54.753 100.968 54.753 97.992C54.753 95.04 57.321 93.024 61.353 93.024ZM61.353 96.216C59.793 96.216 58.761 96.912 58.761 97.992C58.761 99.072 59.793 99.768 61.353 99.768C62.913 99.768 63.945 99.072 63.945 97.992C63.945 96.912 62.913 96.216 61.353 96.216ZM74.457 103.752V109.872H60.393V110.688H74.673V113.496H56.385V107.376H70.449V106.56H56.337V103.752H74.457ZM93.487 93H97.543V113.496H93.487V93ZM87.367 97.2C87.319 99.048 87.151 100.752 86.863 102.312L92.815 110.04L89.599 112.44L85.471 106.824C83.815 110.472 81.199 112.512 78.079 112.536V108.456C81.079 108.12 83.143 103.776 83.287 97.2H78.655V93.48H91.759V97.2H87.367Z" fill="#FF9526"/>
<path d="M80.3236 29.6805C79.6017 27.6216 77.9192 26.5781 76.295 25.5691C74.8816 24.6906 73.547 23.8604 72.6742 22.3699C70.2682 18.2413 68.9467 15.75 65.0051 15.75C61.0635 15.75 59.7378 18.2421 57.3261 22.3691C56.4525 23.8629 55.1113 24.6947 53.6962 25.5749C52.072 26.5847 50.3928 27.6257 49.6685 29.6805C49.3867 30.4216 49.2448 31.2084 49.2501 32.0012C49.2501 35.3432 51.9121 38.0625 54.8611 38.0625C57.8101 38.0625 61.6951 36.5753 65.0133 36.5753C68.3314 36.5753 72.1623 38.0625 75.1482 38.0625C78.1342 38.0625 80.7501 35.3432 80.7501 32.0012C80.7525 31.208 80.6079 30.4211 80.3236 29.6805Z" fill="#FF9526"/>
<path d="M49.9062 23.625C52.4433 23.625 54.5 20.9807 54.5 17.7188C54.5 14.4568 52.4433 11.8125 49.9062 11.8125C47.3692 11.8125 45.3125 14.4568 45.3125 17.7188C45.3125 20.9807 47.3692 23.625 49.9062 23.625Z" fill="#FF9526"/>
<path d="M59.0938 15.75C61.6308 15.75 63.6875 13.1057 63.6875 9.84375C63.6875 6.58182 61.6308 3.9375 59.0938 3.9375C56.5567 3.9375 54.5 6.58182 54.5 9.84375C54.5 13.1057 56.5567 15.75 59.0938 15.75Z" fill="#FF9526"/>
<path d="M70.9062 15.75C73.4433 15.75 75.5 13.1057 75.5 9.84375C75.5 6.58182 73.4433 3.9375 70.9062 3.9375C68.3692 3.9375 66.3125 6.58182 66.3125 9.84375C66.3125 13.1057 68.3692 15.75 70.9062 15.75Z" fill="#FF9526"/>
<path d="M80.0938 23.625C82.6308 23.625 84.6875 20.9807 84.6875 17.7188C84.6875 14.4568 82.6308 11.8125 80.0938 11.8125C77.5567 11.8125 75.5 14.4568 75.5 17.7188C75.5 20.9807 77.5567 23.625 80.0938 23.625Z" fill="#FF9526"/>
</svg>
