<svg width="456" height="516" viewBox="0 0 456 516" fill="none" xmlns="http://www.w3.org/2000/svg">
<g filter="url(#filter0_d_761_8767)">
<rect x="8" y="5" width="440" height="500" rx="12" fill="#FFF1DE"/>
<path d="M49.784 38H53.576V58.496H49.784V49.376H48.08V58.136H44.336V38.096H48.08V45.536H49.784V38ZM37.448 53.984H38.6C40.208 53.984 42.128 53.744 43.376 53.288V56.792C42.152 57.296 39.968 57.536 38.24 57.536H33.536V38.48H42.488V42.032H37.448V53.984ZM72.0299 38H76.0859V58.496H72.0299V38ZM66.1979 38.552C66.1979 41.6 65.9099 44.336 65.4059 46.712L71.4779 55.16L68.1899 57.512L63.9659 51.392C62.2379 55.328 59.5979 57.512 56.4539 57.536V53.36C59.7419 52.976 62.0459 46.976 62.0699 38.408L66.1979 38.552ZM91.7799 53.984H100.084V57.776H79.3479V53.984H87.6519V50.864H80.4759V38.48H84.4599V41.096H94.9719V38.48H98.9559V50.864H91.7799V53.984ZM84.4599 44.672V47.24H94.9719V44.672H84.4599ZM122.042 38.48V42.248H107.714V47.408H122.282V51.152H103.562V38.48H122.042ZM123.17 53.984V57.776H102.434V53.984H123.17Z" fill="#2B2926"/>
<path d="M39.696 91.424C36.032 91.424 33.616 90.048 33.616 87.776C33.616 85.504 36.032 84.128 39.696 84.128C43.36 84.128 45.776 85.504 45.776 87.776C45.776 90.048 43.36 91.424 39.696 91.424ZM39.696 85.552C37.104 85.552 35.264 86.352 35.264 87.776C35.264 89.2 37.104 90 39.696 90C42.288 90 44.128 89.2 44.128 87.776C44.128 86.352 42.288 85.552 39.696 85.552ZM46.528 92.688V94.16H40.496V97.984H38.88V94.16H32.88V92.688H46.528ZM59.5986 97.664V84H61.1826V97.664H59.5986ZM49.2146 96.848V89.84H55.3266V85.952H49.1826V84.496H56.9106V91.296H50.7986V95.392H54.7986C56.0946 95.392 57.5026 95.136 58.3346 94.736V96.192C57.5026 96.608 56.0786 96.848 54.7506 96.848H49.2146ZM80.9936 86.8H82.9136V88.32H80.9936V91.472H79.4096V84H80.9936V86.8ZM76.8496 85.872C76.8496 89.632 73.7136 91.232 68.9776 91.232V89.856C72.8336 89.84 75.2496 88.624 75.2496 86.144V85.68H68.9776V84.336H76.8496V85.872ZM75.3456 91.936C78.6256 91.936 81.2016 92.704 81.2016 94.8C81.2016 96.896 78.6256 97.664 75.3456 97.664C72.0816 97.664 69.4896 96.896 69.4896 94.8C69.4896 92.704 72.0816 91.936 75.3456 91.936ZM75.3456 96.336C77.6816 96.336 79.5216 95.888 79.5216 94.8C79.5216 93.728 77.6816 93.248 75.3456 93.248C73.0256 93.248 71.1696 93.728 71.1696 94.8C71.1696 95.888 73.0256 96.336 75.3456 96.336ZM98.4643 89.536V91.056H96.5443V97.664H94.9602V84H96.5443V89.536H98.4643ZM88.6882 84.32C91.0722 84.32 92.7522 86.336 92.7522 90.672C92.7522 95.008 91.0722 97.024 88.6882 97.024C86.2882 97.024 84.6082 95.008 84.6082 90.672C84.6082 86.336 86.2882 84.32 88.6882 84.32ZM88.6882 95.568C90.0962 95.568 91.1682 94.144 91.1682 90.672C91.1682 87.216 90.0962 85.776 88.6882 85.776C87.2642 85.776 86.1922 87.216 86.1922 90.672C86.1922 94.144 87.2642 95.568 88.6882 95.568ZM110.895 84H112.479V97.664H110.895V84ZM105.567 85.952C105.551 87.536 105.391 88.992 105.135 90.272L109.599 95.792L108.351 96.736L104.671 92.048C103.727 94.912 102.095 96.608 100.031 96.848V95.28C102.463 94.832 103.903 91.024 103.967 85.952H100.351V84.496H109.071V85.952H105.567ZM126.493 97.664V84H128.077V97.664H126.493ZM119.965 92.896C117.501 92.896 115.741 91.136 115.741 88.592C115.741 86.048 117.501 84.288 119.965 84.288C122.413 84.288 124.189 86.048 124.189 88.592C124.189 91.136 122.413 92.896 119.965 92.896ZM119.965 91.456C121.581 91.456 122.637 90.224 122.637 88.592C122.637 86.96 121.581 85.712 119.965 85.712C118.333 85.712 117.293 86.96 117.293 88.592C117.293 90.224 118.333 91.456 119.965 91.456ZM115.277 96.848V95.36H120.861C122.733 95.36 124.413 95.152 125.341 94.72V96.192C124.429 96.608 122.733 96.848 120.765 96.848H115.277ZM141.008 83.968V86.16H144.64V87.568H135.776V86.16H139.392V83.968H141.008ZM149.76 89.536V91.056H147.84V97.664H146.256V84H147.84V89.536H149.76ZM140.208 88.656C142.432 88.656 144 90.32 144 92.832C144 95.344 142.432 97.008 140.208 97.008C137.984 97.008 136.4 95.344 136.4 92.832C136.4 90.32 137.984 88.656 140.208 88.656ZM140.208 95.632C141.472 95.632 142.464 94.576 142.464 92.832C142.464 91.088 141.472 90.032 140.208 90.032C138.928 90.032 137.936 91.088 137.936 92.832C137.936 94.576 138.928 95.632 140.208 95.632ZM163.935 90.336V91.728H151.983V87.392H162.159V85.792H151.983V84.4H163.727V88.736H153.551V90.336H163.935ZM164.671 93.344V94.784H158.655V97.984H157.023V94.784H151.023V93.344H164.671ZM167.566 89.296V86.208H177.71V85.28H167.566V84.16H179.246V87.264H169.102V88.176H179.438V89.296H167.566ZM166.574 91.44V90.288H180.222V91.44H166.574ZM167.518 97.504V94.432H177.742V93.552H167.486V92.432H179.278V95.488H169.054V96.384H179.518V97.504H167.518ZM196.001 85.296V86.592H186.721V85.296H190.561V83.76H192.161V85.296H196.001ZM199.137 87.744H201.057V89.264H199.137V94.24H197.553V84H199.137V87.744ZM191.361 92.96C189.089 92.96 187.313 91.952 187.313 90.16C187.313 88.368 189.089 87.36 191.361 87.36C193.633 87.36 195.393 88.368 195.393 90.16C195.393 91.952 193.633 92.96 191.361 92.96ZM191.361 88.576C189.825 88.576 188.849 89.248 188.849 90.16C188.849 91.088 189.825 91.744 191.361 91.744C192.897 91.744 193.873 91.088 193.873 90.16C193.873 89.248 192.897 88.576 191.361 88.576ZM189.313 93.744V96.08H199.505V97.488H187.713V93.744H189.313ZM215.119 87.888V89.232H203.295V84H204.895V87.888H215.119ZM202.319 90.72H215.967V92.064H209.935V94.592H208.335V92.064H202.319V90.72ZM204.895 93.28V96.144H215.279V97.504H203.279V93.28H204.895ZM229.502 84H231.006V97.664H229.502V84ZM226.206 89.696V84.08H227.694V97.424H226.206V91.2H224.398C224.302 95.248 223.214 97.024 221.23 97.024C219.166 97.024 218.046 95.088 218.046 90.672C218.046 86.256 219.166 84.32 221.23 84.32C223.134 84.32 224.222 85.968 224.382 89.696H226.206ZM221.23 95.584C222.366 95.584 222.894 94.032 222.894 90.672C222.894 87.312 222.366 85.76 221.23 85.76C220.094 85.76 219.55 87.312 219.55 90.672C219.55 94.032 220.094 95.584 221.23 95.584ZM250.433 86.208H252.353V87.664H250.433V90.688H248.849V84H250.433V86.208ZM242.641 87.952C241.649 89.328 240.065 90.304 238.097 90.56V89.152C240.689 88.688 242.225 86.608 242.241 84.128L243.825 84.224C243.825 85.12 243.649 85.984 243.313 86.752L247.617 89.136L246.833 90.336L242.641 87.952ZM240.593 95.056V96.24H250.769V97.488H239.025V93.872H248.865V92.688H238.993V91.44H250.433V95.056H240.593ZM264.896 84H266.48V97.664H264.896V93.04H262.512V91.568H264.896V89.2H262.512V87.728H264.896V84ZM261.152 85.936V95.328C262.016 95.264 262.784 95.12 263.344 94.88V96.32C262.416 96.688 260.736 96.848 259.136 96.848H253.84V95.408H255.344V85.936H253.888V84.496H262.64V85.936H261.152ZM256.912 95.408H259.28H259.6V85.936H256.912V95.408ZM276.782 95.52H282.814V97.008H269.166V95.52H275.166V92.448H270.062V84.4H271.63V86.848H280.334V84.4H281.902V92.448H276.782V95.52ZM271.63 88.272V91.024H280.334V88.272H271.63ZM296.349 84H297.853V97.664H296.349V84ZM292.909 88.672V84.08H294.413V97.424H292.909V90.176H290.749V88.672H292.909ZM289.261 84.4C289.261 86.528 289.149 88.368 288.957 89.952L292.269 95.968L290.941 96.672L288.541 92.192C287.853 94.928 286.653 96.464 284.829 96.848V95.248C286.989 94.544 287.725 90.432 287.741 84.336L289.261 84.4ZM310.78 95.552H313.916V97.008H300.268V95.552H303.404V91.856C301.836 91.136 300.924 89.936 300.924 88.4C300.924 85.872 303.356 84.24 307.084 84.24C310.812 84.24 313.244 85.872 313.244 88.4C313.244 89.92 312.332 91.136 310.78 91.84V95.552ZM302.604 88.4C302.604 90.032 304.396 91.104 307.084 91.104C309.772 91.104 311.58 90.032 311.58 88.4C311.58 86.736 309.772 85.68 307.084 85.68C304.396 85.68 302.604 86.736 302.604 88.4ZM304.988 92.352V95.552H309.196V92.352C308.556 92.48 307.852 92.544 307.084 92.544C306.332 92.544 305.628 92.48 304.988 92.352ZM317.002 97.536C316.362 97.536 315.866 97.04 315.866 96.4C315.866 95.76 316.362 95.264 317.002 95.264C317.642 95.264 318.122 95.76 318.122 96.4C318.122 97.04 317.642 97.536 317.002 97.536ZM45.808 131.104V132.56H33.584V131.104H36V126.048H33.728V124.576H45.664V126.048H43.392V131.104H45.808ZM37.6 126.048V131.104H41.792V126.048H37.6ZM32.88 135.504H46.528V137.008H32.88V135.504ZM56.0306 135.552H62.0786V137.008H48.4306V135.552H54.4146V132.976H49.3426V128.048H59.6146V125.904H49.3426V124.496H61.1826V129.408H50.9266V131.568H61.3906V132.976H56.0306V135.552ZM76.7333 124V130.848H75.1493V124H76.7333ZM74.1573 129.744C73.3253 130.112 71.7093 130.352 69.7572 130.352H64.1412V129.088H65.9012V125.6H64.1892V124.336H73.5653V125.6H71.8372V129.008C72.7972 128.912 73.5653 128.736 74.1573 128.464V129.744ZM67.4373 125.6V129.088H69.8692H70.3012V125.6H67.4373ZM66.7332 136.256H77.0693V137.488H65.1652V133.952H75.1652V132.832H65.1332V131.6H76.7333V135.12H66.7332V136.256ZM81.6439 135.328L80.8439 138.944H79.5319L80.0439 135.328H81.6439ZM95.8112 130.336H101.859V131.616H88.2112V130.336H94.2432V128.928H89.1872V124.16H100.867V128.928H95.8112V130.336ZM90.7712 125.424V127.664H99.2992V125.424H90.7712ZM89.1552 137.504V132.864H100.899V137.504H89.1552ZM90.7392 134.128V136.24H99.3313V134.128H90.7392ZM116.45 124.4V131.024H104.706V124.4H116.45ZM114.866 129.568V125.872H106.29V129.568H114.866ZM117.41 132.672V134.176H111.394V137.984H109.762V134.176H103.762V132.672H117.41ZM130.929 124H132.449V137.664H130.929V124ZM127.521 129.504V124.08H129.025V137.424H127.521V131.008H125.073C124.385 134.624 122.321 136.784 119.617 136.816V135.328C122.161 135.248 123.793 132.48 123.793 128.256V125.936H119.617V124.496H125.329V128.176C125.329 128.64 125.313 129.072 125.281 129.504H127.521ZM137.439 130V131.856H135.551V130H137.439ZM146.851 127.872C145.331 129.936 142.995 131.232 140.499 131.248V129.744C143.443 129.76 146.227 127.136 146.819 123.904L148.451 124.16C148.291 125.04 148.003 125.888 147.619 126.656L153.475 129.904L152.739 131.232L146.851 127.872ZM153.827 132.688V134.16H147.795V137.984H146.179V134.16H140.179V132.688H153.827ZM167.026 134.16V130.256H164.786V128.848H167.026V126.928H164.786V125.52H167.026V124H168.594V134.16H167.026ZM163.986 124.336V131.728H156.306V124.336H163.986ZM162.418 130.352V125.712H157.858V130.352H162.418ZM158.578 136.064H168.882V137.488H156.962V133.056H158.578V136.064ZM173.857 130V131.856H171.969V130H173.857ZM188.965 127.104H190.885V128.624H188.965V134.144H187.381V124H188.965V127.104ZM181.173 128.864C180.181 130.592 178.613 131.824 176.629 132.08V130.592C179.221 130.128 180.741 127.312 180.773 124.128L182.357 124.224C182.357 125.392 182.165 126.512 181.797 127.536L186.117 130.8L185.157 131.936L181.173 128.864ZM179.141 133.136V136.048H189.333V137.488H177.541V133.136H179.141ZM195.796 129.664C195.076 131.088 193.844 132 192.26 132.192V130.8C193.924 130.48 194.884 129.024 194.996 126.736H192.42V125.392H194.996V123.776H196.532V125.392H199.028V126.736H196.516C196.5 127.296 196.42 127.808 196.308 128.288L199.412 131.088L198.452 132.128L195.796 129.664ZM203.78 124H205.284V132.576H203.78V128.688H201.556V132.432H200.052V124.08H201.556V127.2H203.78V124ZM193.22 134.688V133.328H205.284V137.664H203.716V134.688H193.22ZM223.414 133.952V125.968H213.174V124.48H225.078V133.952H223.414ZM212.342 137.008V135.52H225.99V137.008H212.342ZM239.525 124H241.029V137.664H239.525V130.976H237.301V137.424H235.797V124.08H237.301V129.504H239.525V124ZM229.797 135.44H230.853C232.501 135.44 233.797 135.232 234.805 134.784V136.24C233.909 136.64 232.517 136.848 230.821 136.848H228.309V129.856H232.341V125.904H228.309V124.496H233.845V131.264H229.797V135.44ZM256.372 131.104V132.56H244.148V131.104H246.564V126.048H244.292V124.576H256.228V126.048H253.956V131.104H256.372ZM248.164 126.048V131.104H252.356V126.048H248.164ZM243.444 135.504H257.092V137.008H243.444V135.504ZM261.106 135.328L260.306 138.944H258.994L259.506 135.328H261.106ZM278.842 124H280.426V132.16H278.842V124ZM272.474 128.688C271.45 130.336 269.85 131.504 267.882 131.76V130.288C270.474 129.824 272.09 127.184 272.122 124.128L273.706 124.224C273.706 125.344 273.498 126.432 273.114 127.408L277.45 130.416L276.554 131.568L272.474 128.688ZM268.714 134.288V132.912H280.426V137.664H278.826V134.288H268.714ZM297.512 129.536V131.056H295.592V137.664H294.008V124H295.592V129.536H297.512ZM289.128 124.4C289.112 126.528 288.936 128.432 288.584 130.08L292.888 135.904L291.608 136.816L288.088 131.936C287.112 134.912 285.464 136.688 283.336 136.848V135.248C286.072 134.816 287.496 130.08 287.512 124.336L289.128 124.4ZM313.063 126.88H311.143V128.592H313.063V129.936H311.143V132.144H309.559V124H311.143V125.536H313.063V126.88ZM299.255 127.28H305.623V125.632H299.223V124.336H307.191V128.544H300.823V130.224H304.263C306.119 130.224 307.687 130 308.567 129.616V130.912C307.735 131.28 306.103 131.52 304.167 131.52H299.255V127.28ZM305.495 132.576C308.775 132.576 311.351 133.216 311.351 135.12C311.351 137.008 308.775 137.664 305.495 137.664C302.231 137.664 299.639 137.008 299.639 135.12C299.639 133.216 302.231 132.576 305.495 132.576ZM305.495 136.4C307.831 136.4 309.671 136.048 309.671 135.12C309.671 134.192 307.831 133.84 305.495 133.84C303.159 133.84 301.319 134.192 301.319 135.12C301.319 136.048 303.159 136.4 305.495 136.4ZM330.266 134.144V130.272H328.026V128.864H330.266V126.96H328.026V125.552H330.266V124H331.834V134.144H330.266ZM327.322 124.24V131.936H319.53V124.24H321.082V126.592H325.77V124.24H327.322ZM321.082 130.576H325.77V127.936H321.082V130.576ZM321.818 136.048H332.122V137.488H320.202V133.12H321.818V136.048ZM343.721 125.584V126.976H334.457V125.584H338.281V123.856H339.897V125.584H343.721ZM348.809 129.408V130.928H346.921V137.664H345.337V124H346.921V129.408H348.809ZM339.881 133.424V135.44C341.689 135.424 343.257 135.264 344.201 134.832V136.272C343.337 136.656 341.657 136.848 339.737 136.848H334.521V135.44H338.297V133.408C336.361 133.2 335.161 132.176 335.161 130.64C335.161 128.896 336.697 127.808 339.113 127.808C341.529 127.808 343.065 128.896 343.065 130.64C343.065 132.192 341.849 133.216 339.881 133.424ZM336.665 130.64C336.665 131.504 337.497 132.16 339.113 132.16C340.729 132.16 341.561 131.504 341.561 130.64C341.561 129.776 340.729 129.104 339.113 129.104C337.497 129.104 336.665 129.776 336.665 130.64ZM352.183 135.328L351.383 138.944H350.071L350.583 135.328H352.183ZM40.496 155.52H46.528V157.008H32.88V155.52H38.88V152.608C35.632 152.384 33.536 150.768 33.536 148.448C33.536 145.92 35.984 144.24 39.696 144.24C43.408 144.24 45.856 145.92 45.856 148.448C45.856 150.768 43.76 152.384 40.496 152.608V155.52ZM35.216 148.448C35.216 150.096 37.008 151.2 39.696 151.2C42.4 151.2 44.192 150.096 44.192 148.448C44.192 146.784 42.4 145.68 39.696 145.68C37.008 145.68 35.216 146.784 35.216 148.448ZM49.4066 148.496V144H50.9906V147.248H61.2626V148.496H49.4066ZM48.4306 150.864V149.616H62.0786V150.864H48.4306ZM49.3746 157.504V154.176H59.5826V153.184H49.3426V151.984H61.1346V155.312H50.9266V156.304H61.3746V157.504H49.3746ZM75.1973 157.664V144H76.7812V157.664H75.1973ZM68.6693 152.896C66.2052 152.896 64.4452 151.136 64.4452 148.592C64.4452 146.048 66.2052 144.288 68.6693 144.288C71.1173 144.288 72.8933 146.048 72.8933 148.592C72.8933 151.136 71.1173 152.896 68.6693 152.896ZM68.6693 151.456C70.2853 151.456 71.3413 150.224 71.3413 148.592C71.3413 146.96 70.2853 145.712 68.6693 145.712C67.0372 145.712 65.9972 146.96 65.9972 148.592C65.9972 150.224 67.0372 151.456 68.6693 151.456ZM63.9812 156.848V155.36H69.5652C71.4373 155.36 73.1173 155.152 74.0452 154.72V156.192C73.1333 156.608 71.4373 156.848 69.4693 156.848H63.9812ZM93.4082 144.992V146.176H84.1282V144.992H87.9682V143.76H89.5682V144.992H93.4082ZM96.5443 146.848H98.4643V148.208H96.5443V151.136H94.9602V144H96.5443V146.848ZM88.7682 151.088C86.5122 151.088 84.7522 150.352 84.7522 148.976C84.7522 147.6 86.5122 146.864 88.7682 146.864C91.0082 146.864 92.7682 147.6 92.7682 148.976C92.7682 150.352 91.0082 151.088 88.7682 151.088ZM88.7682 147.984C87.2322 147.984 86.2722 148.384 86.2722 148.976C86.2722 149.568 87.2322 149.968 88.7682 149.968C90.2882 149.968 91.2642 149.568 91.2642 148.976C91.2642 148.384 90.2882 147.984 88.7682 147.984ZM86.6882 155.232V156.32H96.8802V157.488H85.1362V154.112H94.9922V153.04H85.1042V151.872H96.5443V155.232H86.6882ZM115.539 150.688V144H117.123V150.688H115.539ZM108.867 150.512C106.339 150.512 104.627 149.184 104.627 147.328C104.627 145.472 106.339 144.144 108.867 144.144C111.395 144.144 113.091 145.472 113.091 147.328C113.091 149.184 111.395 150.512 108.867 150.512ZM108.867 149.232C110.435 149.232 111.523 148.48 111.523 147.328C111.523 146.176 110.435 145.424 108.867 145.424C107.299 145.424 106.195 146.176 106.195 147.328C106.195 148.48 107.299 149.232 108.867 149.232ZM105.715 157.488V153.872H115.555V152.688H105.683V151.44H117.123V155.056H107.283V156.24H117.459V157.488H105.715ZM134.21 149.536V151.056H132.37V157.664H130.834V144H132.37V149.536H134.21ZM120.226 145.936V144.496H124.146V147.584C124.146 152.72 123.138 156.208 120.226 156.336V154.864C122.034 154.624 122.61 151.872 122.61 147.728V145.936H120.226ZM124.85 145.936V144.496H128.738V147.792C128.738 153.28 127.426 156.672 124.418 156.816V155.344C126.338 155.12 127.202 152.48 127.202 147.936V145.936H124.85ZM146.64 144H148.224V157.664H146.64V144ZM141.312 145.952C141.296 147.536 141.136 148.992 140.88 150.272L145.344 155.792L144.096 156.736L140.416 152.048C139.472 154.912 137.84 156.608 135.776 156.848V155.28C138.208 154.832 139.648 151.024 139.712 145.952H136.096V144.496H144.816V145.952H141.312ZM164.899 145.296V146.592H155.619V145.296H159.459V143.76H161.059V145.296H164.899ZM168.035 147.744H169.955V149.264H168.035V154.24H166.451V144H168.035V147.744ZM160.259 152.96C157.987 152.96 156.211 151.952 156.211 150.16C156.211 148.368 157.987 147.36 160.259 147.36C162.531 147.36 164.291 148.368 164.291 150.16C164.291 151.952 162.531 152.96 160.259 152.96ZM160.259 148.576C158.723 148.576 157.747 149.248 157.747 150.16C157.747 151.088 158.723 151.744 160.259 151.744C161.795 151.744 162.771 151.088 162.771 150.16C162.771 149.248 161.795 148.576 160.259 148.576ZM158.211 153.744V156.08H168.403V157.488H156.611V153.744H158.211ZM184.406 148.8V151.936H176.422V144.24H177.974V146.592H182.854V144.24H184.406V147.312H187.142V144H188.726V154.144H187.142V148.8H184.406ZM177.974 150.576H182.854V147.936H177.974V150.576ZM178.71 156.048H189.014V157.488H177.094V153.12H178.71V156.048ZM203.045 144H204.549V157.664H203.045V144ZM199.749 149.696V144.08H201.237V157.424H199.749V151.2H197.941C197.845 155.248 196.757 157.024 194.773 157.024C192.709 157.024 191.589 155.088 191.589 150.672C191.589 146.256 192.709 144.32 194.773 144.32C196.677 144.32 197.765 145.968 197.925 149.696H199.749ZM194.773 155.584C195.909 155.584 196.437 154.032 196.437 150.672C196.437 147.312 195.909 145.76 194.773 145.76C193.637 145.76 193.093 147.312 193.093 150.672C193.093 154.032 193.637 155.584 194.773 155.584ZM220.792 145.008V146.192H211.656V145.008H215.352V143.616H216.984V145.008H220.792ZM225.896 147.648V149.12H224.008V153.376H222.424V144H224.008V147.648H225.896ZM221.288 152.56C220.424 152.928 218.68 153.088 216.744 153.088H211.608V151.872H215.4V150.896C213.432 150.736 212.264 150 212.264 148.864C212.264 147.6 213.752 146.8 216.2 146.8C218.648 146.8 220.136 147.6 220.136 148.864C220.136 150 218.952 150.752 216.968 150.896V151.872C218.776 151.856 220.44 151.696 221.288 151.328V152.56ZM213.752 148.864C213.752 149.408 214.568 149.808 216.2 149.808C217.816 149.808 218.632 149.408 218.632 148.864C218.632 148.336 217.816 147.952 216.2 147.952C214.568 147.952 213.752 148.336 213.752 148.864ZM212.488 155.344V154.112H224.008V157.664H222.424V155.344H212.488ZM238.327 154.144V144H239.911V154.144H238.327ZM231.623 152.08C228.951 152.08 227.287 150.4 227.287 148.112C227.287 145.824 228.951 144.144 231.623 144.144C234.295 144.144 235.943 145.824 235.943 148.112C235.943 150.4 234.295 152.08 231.623 152.08ZM231.623 150.736C233.239 150.736 234.359 149.728 234.359 148.112C234.359 146.496 233.239 145.472 231.623 145.472C229.991 145.472 228.871 146.496 228.871 148.112C228.871 149.728 229.991 150.736 231.623 150.736ZM228.487 157.488V153.024H230.103V156.048H240.279V157.488H228.487ZM251.941 144.992V146.176H242.661V144.992H246.501V143.76H248.101V144.992H251.941ZM255.077 146.848H256.997V148.208H255.077V151.136H253.493V144H255.077V146.848ZM247.301 151.088C245.045 151.088 243.285 150.352 243.285 148.976C243.285 147.6 245.045 146.864 247.301 146.864C249.541 146.864 251.301 147.6 251.301 148.976C251.301 150.352 249.541 151.088 247.301 151.088ZM247.301 147.984C245.765 147.984 244.805 148.384 244.805 148.976C244.805 149.568 245.765 149.968 247.301 149.968C248.821 149.968 249.797 149.568 249.797 148.976C249.797 148.384 248.821 147.984 247.301 147.984ZM245.221 155.232V156.32H255.413V157.488H243.669V154.112H253.525V153.04H243.637V151.872H255.077V155.232H245.221ZM269.576 147.872C268.056 149.936 265.72 151.232 263.224 151.248V149.744C266.168 149.76 268.952 147.136 269.544 143.904L271.176 144.16C271.016 145.04 270.728 145.888 270.344 146.656L276.2 149.904L275.464 151.232L269.576 147.872ZM276.552 152.688V154.16H270.52V157.984H268.904V154.16H262.904V152.688H276.552ZM295.851 144V151.6H294.267V144H295.851ZM291.851 147.696C291.851 149.808 290.187 151.248 287.579 151.248C284.955 151.248 283.291 149.808 283.291 147.696C283.291 145.6 284.955 144.144 287.579 144.144C290.187 144.144 291.851 145.6 291.851 147.696ZM284.875 147.696C284.875 149.104 285.979 149.936 287.579 149.936C289.163 149.936 290.267 149.104 290.267 147.696C290.267 146.288 289.163 145.456 287.579 145.456C285.979 145.456 284.875 146.288 284.875 147.696ZM296.955 156.432L296.011 157.552L293.387 155.36C292.555 156.624 291.323 157.408 289.979 157.488L287.659 155.44C286.811 156.64 285.595 157.392 284.283 157.488V156.048C285.787 155.904 287.115 154.128 287.291 152.016L288.827 152.224C288.747 152.96 288.571 153.632 288.315 154.24L290.411 155.968C291.691 155.568 292.763 153.936 292.907 152.016L294.443 152.24C294.379 152.928 294.235 153.552 294.011 154.144L296.955 156.432ZM309.93 144H311.514V157.664H309.93V151.152H307.306C307.178 155.152 305.53 157.024 303.242 157.024C300.842 157.024 299.162 155.008 299.162 150.672C299.162 146.336 300.842 144.32 303.242 144.32C305.434 144.32 307.034 146.016 307.274 149.664H309.93V144ZM303.242 155.568C304.65 155.568 305.722 154.144 305.722 150.672C305.722 147.216 304.65 145.776 303.242 145.776C301.818 145.776 300.746 147.216 300.746 150.672C300.746 154.144 301.818 155.568 303.242 155.568ZM324.713 155.552H327.849V157.008H314.201V155.552H317.337V151.856C315.769 151.136 314.857 149.936 314.857 148.4C314.857 145.872 317.289 144.24 321.017 144.24C324.745 144.24 327.177 145.872 327.177 148.4C327.177 149.92 326.265 151.136 324.713 151.84V155.552ZM316.537 148.4C316.537 150.032 318.329 151.104 321.017 151.104C323.705 151.104 325.513 150.032 325.513 148.4C325.513 146.736 323.705 145.68 321.017 145.68C318.329 145.68 316.537 146.736 316.537 148.4ZM318.921 152.352V155.552H323.129V152.352C322.489 152.48 321.785 152.544 321.017 152.544C320.265 152.544 319.561 152.48 318.921 152.352ZM330.935 157.536C330.295 157.536 329.799 157.04 329.799 156.4C329.799 155.76 330.295 155.264 330.935 155.264C331.575 155.264 332.055 155.76 332.055 156.4C332.055 157.04 331.575 157.536 330.935 157.536ZM41.328 188.304V190.768H33.456V184.336H41.328V186.816H44.16V184H45.744V191.552H44.16V188.304H41.328ZM39.76 189.408V185.68H35.024V189.408H39.76ZM39.952 192C43.264 192 45.872 192.784 45.872 194.832C45.872 196.88 43.264 197.664 39.952 197.664C36.64 197.664 34.048 196.88 34.048 194.832C34.048 192.784 36.64 192 39.952 192ZM39.952 196.352C42.304 196.352 44.176 195.888 44.176 194.832C44.176 193.792 42.304 193.312 39.952 193.312C37.6 193.312 35.728 193.792 35.728 194.832C35.728 195.888 37.6 196.352 39.952 196.352ZM56.8786 188.304V190.768H49.0066V184.336H56.8786V186.816H59.7106V184H61.2946V191.552H59.7106V188.304H56.8786ZM55.3106 189.408V185.68H50.5746V189.408H55.3106ZM55.5026 192C58.8146 192 61.4226 192.784 61.4226 194.832C61.4226 196.88 58.8146 197.664 55.5026 197.664C52.1906 197.664 49.5986 196.88 49.5986 194.832C49.5986 192.784 52.1906 192 55.5026 192ZM55.5026 196.352C57.8546 196.352 59.7266 195.888 59.7266 194.832C59.7266 193.792 57.8546 193.312 55.5026 193.312C53.1506 193.312 51.2786 193.792 51.2786 194.832C51.2786 195.888 53.1506 196.352 55.5026 196.352ZM75.1493 190.688V184H76.7333V190.688H75.1493ZM68.4773 190.512C65.9492 190.512 64.2372 189.184 64.2372 187.328C64.2372 185.472 65.9492 184.144 68.4773 184.144C71.0052 184.144 72.7013 185.472 72.7013 187.328C72.7013 189.184 71.0052 190.512 68.4773 190.512ZM68.4773 189.232C70.0452 189.232 71.1333 188.48 71.1333 187.328C71.1333 186.176 70.0452 185.424 68.4773 185.424C66.9092 185.424 65.8052 186.176 65.8052 187.328C65.8052 188.48 66.9092 189.232 68.4773 189.232ZM65.3252 197.488V193.872H75.1652V192.688H65.2932V191.44H76.7333V195.056H66.8932V196.24H77.0693V197.488H65.3252ZM90.6999 184H92.2839V197.664H90.6999V184ZM85.3719 185.952C85.3559 187.536 85.1959 188.992 84.9399 190.272L89.4039 195.792L88.1559 196.736L84.4759 192.048C83.5319 194.912 81.8999 196.608 79.8359 196.848V195.28C82.2679 194.832 83.7079 191.024 83.7719 185.952H80.1559V184.496H88.8759V185.952H85.3719ZM106.299 197.664V184H107.882V197.664H106.299ZM99.7705 192.896C97.3065 192.896 95.5465 191.136 95.5465 188.592C95.5465 186.048 97.3065 184.288 99.7705 184.288C102.219 184.288 103.995 186.048 103.995 188.592C103.995 191.136 102.219 192.896 99.7705 192.896ZM99.7705 191.456C101.386 191.456 102.443 190.224 102.443 188.592C102.443 186.96 101.386 185.712 99.7705 185.712C98.1385 185.712 97.0985 186.96 97.0985 188.592C97.0985 190.224 98.1385 191.456 99.7705 191.456ZM95.0825 196.848V195.36H100.666C102.538 195.36 104.219 195.152 105.146 194.72V196.192C104.234 196.608 102.538 196.848 100.57 196.848H95.0825ZM125.214 197.328L123.933 194.16H117.773L116.493 197.328H114.733L120.013 184.512H121.789L127.053 197.328H125.214ZM118.365 192.672H123.341L120.861 186.48L118.365 192.672ZM130.598 184.512V197.328H128.918V184.512H130.598ZM147.307 189.536V191.056H145.387V197.664H143.803V184H145.387V189.536H147.307ZM133.515 185.952V184.496H140.955V187.792C140.955 193.232 138.155 196.816 133.515 196.816V195.312C137.227 195.296 139.339 192.4 139.339 187.824V185.952H133.515ZM165.87 184.08V189.904H154.19V184.08H155.758V185.728H164.318V184.08H165.87ZM155.758 188.64H164.318V186.944H155.758V188.64ZM153.214 191.248H166.862V192.592H160.83V194.72H159.23V192.592H153.214V191.248ZM155.774 193.824V196.16H166.158V197.504H154.158V193.824H155.774ZM180.029 184H181.613V192.32H180.029V187.936H176.733V186.496H180.029V184ZM173.261 188.816C172.285 190.48 170.733 191.664 168.781 191.92V190.448C171.325 189.984 172.845 187.248 172.877 184.128L174.461 184.224C174.461 185.392 174.269 186.496 173.885 187.504L178.141 190.72L177.197 191.808L173.261 188.816ZM169.869 194.448V193.072H181.613V197.664H179.997V194.448H169.869ZM193.548 185.296V186.592H184.268V185.296H188.108V183.76H189.708V185.296H193.548ZM196.684 187.744H198.604V189.264H196.684V194.24H195.1V184H196.684V187.744ZM188.908 192.96C186.636 192.96 184.86 191.952 184.86 190.16C184.86 188.368 186.636 187.36 188.908 187.36C191.18 187.36 192.94 188.368 192.94 190.16C192.94 191.952 191.18 192.96 188.908 192.96ZM188.908 188.576C187.372 188.576 186.396 189.248 186.396 190.16C186.396 191.088 187.372 191.744 188.908 191.744C190.444 191.744 191.42 191.088 191.42 190.16C191.42 189.248 190.444 188.576 188.908 188.576ZM186.86 193.744V196.08H197.052V197.488H185.26V193.744H186.86ZM216.879 186.8H218.799V188.32H216.879V191.472H215.295V184H216.879V186.8ZM212.735 185.872C212.735 189.632 209.599 191.232 204.863 191.232V189.856C208.719 189.84 211.135 188.624 211.135 186.144V185.68H204.863V184.336H212.735V185.872ZM211.231 191.936C214.511 191.936 217.087 192.704 217.087 194.8C217.087 196.896 214.511 197.664 211.231 197.664C207.967 197.664 205.375 196.896 205.375 194.8C205.375 192.704 207.967 191.936 211.231 191.936ZM211.231 196.336C213.567 196.336 215.407 195.888 215.407 194.8C215.407 193.728 213.567 193.248 211.231 193.248C208.911 193.248 207.055 193.728 207.055 194.8C207.055 195.888 208.911 196.336 211.231 196.336ZM234.349 189.536V191.056H232.429V197.664H230.845V184H232.429V189.536H234.349ZM224.573 184.32C226.957 184.32 228.637 186.336 228.637 190.672C228.637 195.008 226.957 197.024 224.573 197.024C222.173 197.024 220.493 195.008 220.493 190.672C220.493 186.336 222.173 184.32 224.573 184.32ZM224.573 195.568C225.981 195.568 227.053 194.144 227.053 190.672C227.053 187.216 225.981 185.776 224.573 185.776C223.149 185.776 222.077 187.216 222.077 190.672C222.077 194.144 223.149 195.568 224.573 195.568ZM246.78 184H248.364V197.664H246.78V184ZM241.452 185.952C241.436 187.536 241.276 188.992 241.02 190.272L245.484 195.792L244.236 196.736L240.556 192.048C239.612 194.912 237.98 196.608 235.916 196.848V195.28C238.348 194.832 239.788 191.024 239.852 185.952H236.236V184.496H244.956V185.952H241.452ZM262.379 197.664V184H263.963V197.664H262.379ZM255.851 192.896C253.387 192.896 251.627 191.136 251.627 188.592C251.627 186.048 253.387 184.288 255.851 184.288C258.299 184.288 260.075 186.048 260.075 188.592C260.075 191.136 258.299 192.896 255.851 192.896ZM255.851 191.456C257.467 191.456 258.523 190.224 258.523 188.592C258.523 186.96 257.467 185.712 255.851 185.712C254.219 185.712 253.179 186.96 253.179 188.592C253.179 190.224 254.219 191.456 255.851 191.456ZM251.163 196.848V195.36H256.747C258.619 195.36 260.299 195.152 261.227 194.72V196.192C260.315 196.608 258.619 196.848 256.651 196.848H251.163ZM285.645 186.8V188.32H283.725V191.424H282.141V184H283.725V186.8H285.645ZM279.581 185.824C279.581 189.552 276.445 191.04 271.709 191.04V189.664C275.565 189.648 277.981 188.544 277.981 186.096V185.68H271.709V184.336H279.581V185.824ZM272.301 197.488V192.176H283.725V197.488H272.301ZM273.885 193.52V196.144H282.141V193.52H273.885ZM295.532 186.576H298.188V184H299.772V191.68H298.188V187.952H295.532V186.576ZM291.724 188.576C290.78 190.064 289.196 191.088 287.18 191.28V189.856C289.436 189.552 290.844 187.936 291.036 185.712H287.356V184.352H296.076V185.712H292.62C292.588 186.272 292.476 186.8 292.316 187.312L296.524 189.968L295.74 191.152L291.724 188.576ZM293.98 192.128C297.292 192.128 299.884 192.896 299.884 194.896C299.884 196.896 297.292 197.664 293.98 197.664C290.668 197.664 288.076 196.896 288.076 194.896C288.076 192.896 290.668 192.128 293.98 192.128ZM293.98 196.368C296.332 196.368 298.204 195.904 298.204 194.896C298.204 193.888 296.332 193.424 293.98 193.424C291.628 193.424 289.756 193.888 289.756 194.896C289.756 195.904 291.628 196.368 293.98 196.368ZM319.759 184.08V189.904H308.079V184.08H309.647V185.728H318.207V184.08H319.759ZM309.647 188.64H318.207V186.944H309.647V188.64ZM307.103 191.248H320.751V192.592H314.719V194.72H313.119V192.592H307.103V191.248ZM309.663 193.824V196.16H320.047V197.504H308.047V193.824H309.663ZM333.918 184H335.502V192.32H333.918V187.936H330.622V186.496H333.918V184ZM327.15 188.816C326.174 190.48 324.622 191.664 322.67 191.92V190.448C325.214 189.984 326.734 187.248 326.766 184.128L328.35 184.224C328.35 185.392 328.158 186.496 327.774 187.504L332.03 190.72L331.086 191.808L327.15 188.816ZM323.758 194.448V193.072H335.502V197.664H333.886V194.448H323.758ZM355.505 184.16V189.632H343.825V184.16H355.505ZM353.921 188.32V185.472H345.409V188.32H353.921ZM342.849 191.008H356.497V192.352H350.465V194.704H348.865V192.352H342.849V191.008ZM345.409 193.52V196.144H355.809V197.504H343.809V193.52H345.409ZM369.423 190.56V185.808H359.295V184.32H371.071V190.56H369.423ZM372.047 191.696V193.2H365.951V197.984H364.319V193.2H358.399V191.696H372.047ZM388.238 189.408V190.928H386.35V197.664H384.766V184H386.35V189.408H388.238ZM379.214 192.688V195.36C381.022 195.36 382.67 195.2 383.63 194.784V196.272C382.654 196.672 381.038 196.848 379.166 196.848H373.95V195.36H377.646V192.688C375.646 192.352 374.286 190.736 374.286 188.528C374.286 186.032 376.014 184.288 378.43 184.288C380.83 184.288 382.606 186.032 382.606 188.528C382.606 190.736 381.214 192.352 379.214 192.688ZM375.838 188.528C375.838 190.112 376.83 191.328 378.43 191.328C380.014 191.328 381.054 190.112 381.054 188.528C381.054 186.928 380.014 185.712 378.43 185.712C376.83 185.712 375.838 186.928 375.838 188.528ZM45.248 206.8H47.168V208.32H45.248V211.424H43.664V204H45.248V206.8ZM41.344 204.336V210.768H33.36V204.336H41.344ZM39.776 209.424V205.68H34.928V209.424H39.776ZM40.656 213.504C40.56 213.872 40.4 214.208 40.224 214.512L45.792 216.304L45.344 217.664L39.344 215.584C37.968 216.848 35.808 217.488 33.632 217.488V216.112C36.064 216.112 38.32 215.152 38.992 213.504H33.792V212.176H45.424V213.504H40.656ZM61.1986 209.616L54.8946 207.888C53.4706 208.976 51.1506 209.536 48.9746 209.584V208.32C51.2306 208.256 53.9186 207.536 54.5426 206.064H49.2306V204.8H54.4466V203.456H56.0626V204.8H61.2626V206.064H56.1906C56.1266 206.352 55.9986 206.624 55.8386 206.864L61.5666 208.384L61.1986 209.616ZM62.0786 211.776H56.0466V213.2H61.1186V217.504H49.3746V213.2H54.4466V211.776H48.4306V210.512H62.0786V211.776ZM59.5506 216.256V214.432H50.9586V216.256H59.5506ZM80.2576 204H81.7616V217.664H80.2576V204ZM76.8976 209.536V204.08H78.3856V217.424H76.8976V211.024H74.6096C74.0656 214.576 71.9696 216.72 68.9296 216.816V215.36C71.3456 215.232 72.7536 213.52 73.1376 210.896H68.9296V209.472H73.2496V209.312V205.92H68.9296V204.496H74.7536V209.088V209.536H76.8976ZM95.4563 204H97.0402V217.664H95.4563V211.152H92.8322C92.7042 215.152 91.0562 217.024 88.7682 217.024C86.3682 217.024 84.6882 215.008 84.6882 210.672C84.6882 206.336 86.3682 204.32 88.7682 204.32C90.9602 204.32 92.5603 206.016 92.8003 209.664H95.4563V204ZM88.7682 215.568C90.1762 215.568 91.2482 214.144 91.2482 210.672C91.2482 207.216 90.1762 205.776 88.7682 205.776C87.3442 205.776 86.2722 207.216 86.2722 210.672C86.2722 214.144 87.3442 215.568 88.7682 215.568ZM114.979 206.016H110.387V217.328H108.707V206.016H104.099V204.512H114.979V206.016ZM117.857 203.952C118.497 203.952 118.961 204.416 118.961 205.04C118.961 205.664 118.497 206.128 117.857 206.128C117.233 206.128 116.769 205.664 116.769 205.04C116.769 204.416 117.233 203.952 117.857 203.952ZM118.689 217.344H117.041V208.176H118.689V217.344ZM126.331 217.552C124.667 217.552 123.547 216.752 123.083 215.968V221.216H121.435V208.176H123.083V209.536C123.547 208.752 124.667 207.952 126.331 207.952C128.923 207.952 130.859 210.016 130.859 212.752C130.859 215.488 128.923 217.552 126.331 217.552ZM126.187 216.096C128.027 216.096 129.243 214.656 129.243 212.752C129.243 210.848 128.027 209.408 126.187 209.408C124.331 209.408 123.051 210.848 123.051 212.752C123.051 214.656 124.331 216.096 126.187 216.096ZM140.327 215.536H146.359V217.008H132.711V215.536H138.711V212.224H133.607V204.496H145.463V205.968H135.223V210.752H145.623V212.224H140.327V215.536ZM162.09 205.008V206.192H152.954V205.008H156.65V203.616H158.282V205.008H162.09ZM167.194 207.648V209.12H165.306V213.376H163.722V204H165.306V207.648H167.194ZM162.586 212.56C161.722 212.928 159.978 213.088 158.042 213.088H152.906V211.872H156.698V210.896C154.73 210.736 153.562 210 153.562 208.864C153.562 207.6 155.05 206.8 157.498 206.8C159.946 206.8 161.434 207.6 161.434 208.864C161.434 210 160.25 210.752 158.266 210.896V211.872C160.074 211.856 161.738 211.696 162.586 211.328V212.56ZM155.05 208.864C155.05 209.408 155.866 209.808 157.498 209.808C159.114 209.808 159.93 209.408 159.93 208.864C159.93 208.336 159.114 207.952 157.498 207.952C155.866 207.952 155.05 208.336 155.05 208.864ZM153.786 215.344V214.112H165.306V217.664H163.722V215.344H153.786ZM179.624 214.144V204H181.208V214.144H179.624ZM172.92 212.08C170.248 212.08 168.584 210.4 168.584 208.112C168.584 205.824 170.248 204.144 172.92 204.144C175.592 204.144 177.24 205.824 177.24 208.112C177.24 210.4 175.592 212.08 172.92 212.08ZM172.92 210.736C174.536 210.736 175.656 209.728 175.656 208.112C175.656 206.496 174.536 205.472 172.92 205.472C171.288 205.472 170.168 206.496 170.168 208.112C170.168 209.728 171.288 210.736 172.92 210.736ZM169.784 217.488V213.024H171.4V216.048H181.576V217.488H169.784ZM188.135 203.968V206.128H190.999V207.552H183.703V206.128H186.567V203.968H188.135ZM195.671 204H197.143V217.664H195.671V210.992H193.479V217.424H192.007V204.08H193.479V209.504H195.671V204ZM187.415 208.624C189.255 208.624 190.599 210.096 190.599 212.816C190.599 215.536 189.255 217.008 187.415 217.008C185.591 217.008 184.247 215.536 184.247 212.816C184.247 210.096 185.591 208.624 187.415 208.624ZM187.415 215.616C188.407 215.616 189.143 214.608 189.143 212.816C189.143 211.024 188.407 210.016 187.415 210.016C186.439 210.016 185.719 211.024 185.719 212.816C185.719 214.608 186.439 215.616 187.415 215.616ZM207.174 215.52H213.206V217.008H199.558V215.52H205.558V212.448H200.454V204.4H202.022V206.848H210.726V204.4H212.294V212.448H207.174V215.52ZM202.022 208.272V211.024H210.726V208.272H202.022ZM226.74 204H228.244V217.664H226.74V204ZM223.3 208.672V204.08H224.804V217.424H223.3V210.176H221.14V208.672H223.3ZM219.652 204.4C219.652 206.528 219.54 208.368 219.348 209.952L222.66 215.968L221.332 216.672L218.932 212.192C218.244 214.928 217.044 216.464 215.22 216.848V215.248C217.38 214.544 218.116 210.432 218.132 204.336L219.652 204.4ZM241.171 215.552H244.307V217.008H230.659V215.552H233.795V211.856C232.227 211.136 231.315 209.936 231.315 208.4C231.315 205.872 233.747 204.24 237.475 204.24C241.203 204.24 243.635 205.872 243.635 208.4C243.635 209.92 242.723 211.136 241.171 211.84V215.552ZM232.995 208.4C232.995 210.032 234.787 211.104 237.475 211.104C240.163 211.104 241.971 210.032 241.971 208.4C241.971 206.736 240.163 205.68 237.475 205.68C234.787 205.68 232.995 206.736 232.995 208.4ZM235.379 212.352V215.552H239.587V212.352C238.947 212.48 238.243 212.544 237.475 212.544C236.723 212.544 236.019 212.48 235.379 212.352ZM246.801 213.776L246.401 204.512H248.433L248.017 213.776H246.801ZM247.409 217.584C246.737 217.584 246.225 217.072 246.225 216.4C246.225 215.744 246.737 215.232 247.409 215.232C248.081 215.232 248.593 215.744 248.593 216.4C248.593 217.072 248.081 217.584 247.409 217.584Z" fill="#2B2926"/>
<g clip-path="url(#clip0_761_8767)">
<g filter="url(#filter1_d_761_8767)">
<path d="M391.412 239.045H285.159C281.898 239.045 279.256 240.662 279.256 242.656V453.881C279.256 455.875 281.898 457.492 285.159 457.492H391.412C394.673 457.492 397.315 455.875 397.315 453.881V242.656C397.315 240.662 394.673 239.045 391.412 239.045Z" fill="#FFFDF7"/>
<path d="M297.579 252.872H298.524V253.62H297.579V256.336H296.797V251.345H297.579V252.872ZM293.747 253.738C293.255 254.588 292.488 255.194 291.509 255.32V254.588C292.783 254.36 293.531 252.975 293.551 251.408L294.328 251.455C294.328 252.03 294.234 252.581 294.052 253.085L296.177 254.691L295.705 255.25L293.747 253.738ZM292.744 255.84V257.273H297.761V257.981H291.957V255.84H292.744ZM300.861 254.132C300.506 254.832 299.901 255.281 299.119 255.375V254.691C299.94 254.533 300.413 253.817 300.467 252.691H299.198V252.03H300.467V251.235H301.22V252.03H302.449V252.691H301.215C301.205 252.967 301.165 253.219 301.111 253.455L302.636 254.832L302.164 255.344L300.861 254.132ZM304.786 251.345H305.529V255.564H304.786V253.652H303.694V255.494H302.951V251.384H303.694V252.919H304.786V251.345ZM299.591 256.604V255.934H305.529V258.068H304.756V256.604H299.591ZM314.334 251.345H315.116V258.068H314.334V251.345ZM311.85 251.542C311.84 252.573 311.756 253.502 311.579 254.305L313.753 257.202L313.123 257.65L311.338 255.21C310.841 256.69 310.025 257.588 308.962 257.666V256.879C310.305 256.666 311.048 254.336 311.052 251.51L311.85 251.542ZM322.495 252.943H323.439V253.691H322.495V256.336H321.717V251.345H322.495V252.943ZM320.458 252.424C320.458 254.336 318.894 255.281 316.587 255.281V254.58C318.466 254.573 319.671 253.856 319.671 252.518V252.195H316.587V251.51H320.458V252.424ZM317.664 255.864V257.273H322.676V257.981H316.877V255.864H317.664Z" fill="#2B2926"/>
<path d="M363.373 274.469H298.441C294.093 274.469 290.569 277.994 290.569 282.341V289.229C290.569 293.577 294.093 297.101 298.441 297.101H363.373C367.719 297.101 371.243 293.577 371.243 289.229V282.341C371.243 277.994 367.719 274.469 363.373 274.469Z" fill="#FCC389"/>
<path d="M347.632 304.973H298.441C294.093 304.973 290.569 308.497 290.569 312.845V319.733C290.569 324.08 294.093 327.604 298.441 327.604H347.632C351.978 327.604 355.502 324.08 355.502 319.733V312.845C355.502 308.497 351.978 304.973 347.632 304.973Z" fill="#FCC389"/>
<path d="M333.366 333.509H298.441C294.093 333.509 290.569 337.033 290.569 341.381V348.268C290.569 352.616 294.093 356.141 298.441 356.141H333.366C337.713 356.141 341.237 352.616 341.237 348.268V341.381C341.237 337.033 337.713 333.509 333.366 333.509Z" fill="#FCC389"/>
<path d="M377.146 365.98H298.441C294.093 365.98 290.569 369.505 290.569 373.853V380.74C290.569 385.088 294.093 388.612 298.441 388.612H377.146C381.493 388.612 385.017 385.088 385.017 380.74V373.853C385.017 369.505 381.493 365.98 377.146 365.98Z" fill="#FCC389"/>
<path d="M363.373 396.485H298.441C294.093 396.485 290.569 400.009 290.569 404.356V411.245C290.569 415.592 294.093 419.117 298.441 419.117H363.373C367.719 419.117 371.243 415.592 371.243 411.245V404.356C371.243 400.009 367.719 396.485 363.373 396.485Z" fill="#FCC389"/>
<path d="M363.373 426.988H298.441C294.093 426.988 290.569 430.513 290.569 434.86V441.748C290.569 446.095 294.093 449.62 298.441 449.62H363.373C367.719 449.62 371.243 446.095 371.243 441.748V434.86C371.243 430.513 367.719 426.988 363.373 426.988Z" fill="#FCC389"/>
</g>
<g filter="url(#filter2_d_761_8767)">
<path d="M412.105 380.631H170.665C167.669 380.631 165.24 383.073 165.24 386.086V470.645C165.24 473.658 167.669 476.1 170.665 476.1H412.105C415.102 476.1 417.531 473.658 417.531 470.645V386.086C417.531 383.073 415.102 380.631 412.105 380.631Z" fill="#FFFDF7"/>
<path d="M179.505 393.756C178.818 394.695 177.762 395.284 176.634 395.291V394.607C177.965 394.614 179.223 393.422 179.491 391.953L180.229 392.068C180.157 392.469 180.026 392.854 179.853 393.203L182.5 394.68L182.168 395.284L179.505 393.756ZM182.66 395.945V396.615H179.932V398.353H179.202V396.615H176.489V395.945H182.66ZM188.555 396.615V394.84H187.542V394.2H188.555V393.327H187.542V392.687H188.555V391.996H189.264V396.615H188.555ZM187.18 392.148V395.509H183.708V392.148H187.18ZM186.471 394.884V392.775H184.41V394.884H186.471ZM184.735 397.48H189.394V398.128H184.004V396.113H184.735V397.48ZM195.455 391.996H196.172V398.207H195.455V391.996ZM193.169 392.178C193.162 393.131 193.083 393.989 192.923 394.731L194.92 397.408L194.341 397.822L192.699 395.568C192.243 396.935 191.491 397.764 190.514 397.837V397.11C191.751 396.913 192.432 394.76 192.439 392.148L193.169 392.178ZM202.957 393.473H203.825V394.164H202.957V396.608H202.241V391.996H202.957V393.473ZM201.083 392.992C201.083 394.76 199.644 395.633 197.524 395.633V394.986C199.253 394.979 200.36 394.317 200.36 393.08V392.782H197.524V392.148H201.083V392.992ZM198.515 396.171V397.473H203.123V398.128H197.792V396.171H198.515Z" fill="#2B2926"/>
<path d="M176.091 454.572L178.836 449.628C181.581 444.685 187.071 434.798 192.562 432.389C198.051 429.98 203.542 435.047 209.032 439.791C214.522 444.535 220.012 448.955 225.503 453.044C230.993 457.132 236.483 460.888 241.973 457.523C247.463 454.158 252.954 443.674 258.444 441.773C263.934 439.871 269.425 446.554 274.915 450.709C280.404 454.862 285.895 456.488 291.386 455.859C296.875 455.231 302.366 452.349 307.856 450.463C313.346 448.576 318.836 447.684 324.326 444.148C329.816 440.612 335.307 434.431 340.797 429.406C346.287 424.38 351.777 420.51 357.267 423.505C362.758 426.5 368.248 436.359 373.738 438.235C379.229 440.112 384.719 434.003 390.208 431.169C395.699 428.334 401.19 428.773 403.935 428.993L406.679 429.212" stroke="#6EBCED" stroke-width="6"/>
</g>
<g filter="url(#filter3_d_761_8767)">
<path d="M250.679 257.654H136.406C133.127 257.654 130.469 260.3 130.469 263.563V410.32C130.469 413.584 133.127 416.23 136.406 416.23H250.679C253.957 416.23 256.615 413.584 256.615 410.32V263.563C256.615 260.3 253.957 257.654 250.679 257.654Z" fill="#FFFDF7"/>
<path d="M147.807 269.966H148.591V276.695H147.807V269.966ZM145.171 270.927C145.163 271.707 145.084 272.424 144.958 273.054L147.166 275.773L146.548 276.238L144.728 273.929C144.261 275.34 143.454 276.175 142.433 276.293V275.521C143.636 275.3 144.348 273.425 144.38 270.927H142.591V270.21H146.905V270.927H145.171ZM156.014 271.416H156.964V272.164H156.014V274.961H155.231V269.966H156.014V271.416ZM154.74 273.393C154.328 273.575 153.521 273.693 152.563 273.693H150.133V270.092H150.933V273.007H152.611C153.529 273.007 154.305 272.897 154.74 272.708V273.393ZM151.154 274.347V275.899H156.196V276.608H150.363V274.347H151.154ZM160.747 272.148C160.066 272.952 158.95 273.441 157.731 273.519V272.794C159.108 272.684 160.256 271.967 160.541 270.848H157.897V270.139H163.865V270.848H161.372C161.324 271.092 161.245 271.329 161.142 271.542L164.087 272.842L163.762 273.496L160.747 272.148ZM164.261 274.244V274.969H161.269V276.852H160.477V274.969H157.509V274.244H164.261ZM172.929 273.85V272.724H171.932V272.077H172.929V271.337H171.932V270.698H172.929V269.966H173.705V273.85H172.929ZM171.9 273.299C171.473 273.448 170.697 273.551 169.716 273.551H167.389V272.905H168.18V270.777H167.412V270.131H171.718V270.777H170.935V272.858C171.33 272.81 171.655 272.747 171.9 272.661V273.299ZM168.932 270.777V272.905H169.771C169.914 272.905 170.048 272.905 170.183 272.897V270.777H168.932ZM170.84 274.063C172.478 274.063 173.76 274.425 173.76 275.379C173.76 276.332 172.478 276.695 170.84 276.695C169.201 276.695 167.919 276.332 167.919 275.379C167.919 274.425 169.201 274.063 170.84 274.063ZM170.84 276.064C172.003 276.064 172.921 275.852 172.921 275.379C172.921 274.906 172.003 274.693 170.84 274.693C169.676 274.693 168.758 274.906 168.758 275.379C168.758 275.852 169.676 276.064 170.84 276.064ZM180.432 272.424V270.722H175.398V270.045H181.224V272.424H180.432ZM174.955 272.818H181.706V273.488H180.068V275.048H179.292V273.488H178.066V275.048H177.282V273.488H174.955V272.818ZM176.213 274.307V275.946H181.358V276.616H175.422V274.307H176.213ZM190.311 269.966H191.095V273.984H190.311V269.966ZM187.161 272.274C186.655 273.086 185.863 273.661 184.89 273.787V273.062C186.172 272.834 186.971 271.534 186.987 270.029L187.771 270.076C187.771 270.628 187.668 271.163 187.478 271.644L189.623 273.125L189.18 273.693L187.161 272.274ZM185.301 275.032V274.355H191.095V276.695H190.304V275.032H185.301ZM199.469 272.692V273.441H198.519V276.695H197.735V269.966H198.519V272.692H199.469ZM195.321 270.163C195.313 271.211 195.226 272.148 195.052 272.96L197.181 275.828L196.548 276.277L194.807 273.874C194.324 275.34 193.509 276.214 192.456 276.293V275.505C193.809 275.292 194.514 272.96 194.522 270.131L195.321 270.163ZM207.082 271.384H206.132V272.227H207.082V272.889H206.132V273.976H205.349V269.966H206.132V270.722H207.082V271.384ZM200.251 271.581H203.402V270.769H200.236V270.131H204.177V272.203H201.027V273.031H202.729C203.647 273.031 204.423 272.921 204.858 272.731V273.37C204.446 273.551 203.639 273.669 202.681 273.669H200.251V271.581ZM203.338 274.189C204.96 274.189 206.235 274.504 206.235 275.442C206.235 276.372 204.96 276.695 203.338 276.695C201.724 276.695 200.441 276.372 200.441 275.442C200.441 274.504 201.724 274.189 203.338 274.189ZM203.338 276.072C204.494 276.072 205.404 275.899 205.404 275.442C205.404 274.985 204.494 274.812 203.338 274.812C202.183 274.812 201.272 274.985 201.272 275.442C201.272 275.899 202.183 276.072 203.338 276.072ZM211.192 276.837C210.313 275.891 209.719 274.756 209.719 273.322C209.719 271.888 210.313 270.754 211.192 269.808H212.07C211.159 270.73 210.526 271.928 210.526 273.322C210.526 274.717 211.159 275.915 212.07 276.837H211.192ZM218.207 273.259V269.966H218.991V273.259H218.207ZM214.907 273.173C213.656 273.173 212.81 272.519 212.81 271.605C212.81 270.691 213.656 270.037 214.907 270.037C216.157 270.037 216.997 270.691 216.997 271.605C216.997 272.519 216.157 273.173 214.907 273.173ZM214.907 272.542C215.683 272.542 216.221 272.172 216.221 271.605C216.221 271.037 215.683 270.667 214.907 270.667C214.131 270.667 213.585 271.037 213.585 271.605C213.585 272.172 214.131 272.542 214.907 272.542ZM213.348 276.608V274.827H218.215V274.244H213.332V273.63H218.991V275.41H214.123V275.994H219.157V276.608H213.348ZM220.043 276.837C220.953 275.915 221.579 274.717 221.579 273.322C221.579 271.928 220.953 270.73 220.043 269.808H220.914C221.8 270.754 222.386 271.888 222.386 273.322C222.386 274.756 221.8 275.891 220.914 276.837H220.043Z" fill="#2B2926"/>
<path d="M145.745 292.288V290.862H142.547V290.161L145.555 285.977H146.537V290.161H147.573V290.862H146.537V292.288H145.745ZM143.402 290.161H145.745V286.883L143.402 290.161ZM155.963 285.725H156.746V289.286H155.963V287.852H154.34C153.786 288.861 152.385 289.262 150.596 289.262V288.632C151.997 288.632 153.058 288.396 153.541 287.821H150.596V287.198H153.818C153.826 287.127 153.834 287.056 153.834 286.985V286.52H150.596V285.89H154.594V286.773C154.594 286.899 154.586 287.017 154.57 287.135H155.963V285.725ZM155.979 290.31V289.656H156.746V292.367H150.992V289.656H151.76V290.31H155.979ZM151.76 291.729H155.979V290.941H151.76V291.729Z" fill="#2B2926"/>
<path d="M146.544 315.037H149.528V315.769H142.777V315.037H145.745V313.602C144.138 313.492 143.101 312.696 143.101 311.554C143.101 310.309 144.312 309.481 146.149 309.481C147.985 309.481 149.196 310.309 149.196 311.554C149.196 312.696 148.159 313.492 146.544 313.602V315.037ZM143.932 311.554C143.932 312.365 144.819 312.909 146.149 312.909C147.486 312.909 148.373 312.365 148.373 311.554C148.373 310.734 147.486 310.191 146.149 310.191C144.819 310.191 143.932 310.734 143.932 311.554ZM150.873 311.577V309.363H151.657V310.963H156.738V311.577H150.873ZM150.391 312.744V312.129H157.142V312.744H150.391ZM150.858 316.014V314.375H155.907V313.886H150.842V313.295H156.675V314.934H151.625V315.423H156.794V316.014H150.858ZM163.552 316.092V309.363H164.336V316.092H163.552ZM160.323 313.744C159.104 313.744 158.233 312.878 158.233 311.625C158.233 310.372 159.104 309.505 160.323 309.505C161.534 309.505 162.413 310.372 162.413 311.625C162.413 312.878 161.534 313.744 160.323 313.744ZM160.323 313.035C161.122 313.035 161.645 312.428 161.645 311.625C161.645 310.821 161.122 310.206 160.323 310.206C159.516 310.206 159.001 310.821 159.001 311.625C159.001 312.428 159.516 313.035 160.323 313.035ZM158.004 315.691V314.958H160.766C161.692 314.958 162.523 314.855 162.982 314.643V315.367C162.531 315.572 161.692 315.691 160.719 315.691H158.004ZM173.36 309.363H174.144V313.382H173.36V309.363ZM170.21 311.672C169.704 312.484 168.912 313.059 167.939 313.185V312.46C169.221 312.231 170.02 310.931 170.036 309.426L170.82 309.474C170.82 310.025 170.717 310.561 170.527 311.042L172.672 312.523L172.229 313.09L170.21 311.672ZM168.35 314.43V313.752H174.144V316.092H173.353V314.43H168.35ZM182.518 312.09V312.838H181.568V316.092H180.784V309.363H181.568V312.09H182.518ZM178.37 309.56C178.362 310.608 178.275 311.546 178.101 312.357L180.23 315.226L179.597 315.675L177.856 313.272C177.373 314.737 176.558 315.612 175.505 315.691V314.903C176.858 314.69 177.563 312.358 177.571 309.529L178.37 309.56ZM188.588 316.092V309.363H189.372V316.092H188.588ZM183.38 315.675V314.934C185.224 314.926 186.332 313.5 186.332 311.246V310.325H183.38V309.608H187.132V311.231C187.132 313.925 185.691 315.675 183.38 315.675ZM194.436 313.075H197.428V313.697H190.677V313.075H193.66V312.413H191.167V310.624H196.178V310.049H191.167V309.442H196.945V311.199H191.935V311.806H197.04V312.413H194.436V313.075ZM191.088 314.91V314.28H196.953V316.1H196.162V314.91H191.088Z" fill="#2B2926"/>
<path d="M144.93 331.828C143.568 331.828 142.729 331.008 142.682 329.905H143.505C143.529 330.583 144.035 331.111 144.93 331.111C145.816 331.111 146.346 330.607 146.346 329.976C146.346 329.267 145.776 328.849 144.819 328.849H144.122V328.164H144.819C145.626 328.164 146.172 327.707 146.172 327.052C146.172 326.438 145.681 325.934 144.843 325.934C143.988 325.934 143.521 326.533 143.521 327.202H142.69C142.69 326.091 143.544 325.225 144.843 325.225C146.148 325.225 146.995 326.036 146.995 327.029C146.995 327.802 146.449 328.337 145.863 328.479C146.505 328.597 147.162 329.094 147.162 329.968C147.162 331.024 146.259 331.828 144.93 331.828ZM155.785 325.122H156.569V328.684H155.785V327.25H154.162C153.608 328.259 152.207 328.66 150.419 328.66V328.03C151.82 328.03 152.88 327.794 153.363 327.218H150.419V326.596H153.64C153.648 326.525 153.656 326.454 153.656 326.383V325.918H150.419V325.288H154.416V326.171C154.416 326.296 154.408 326.415 154.392 326.533H155.785V325.122ZM155.801 329.709V329.054H156.569V331.764H150.814V329.054H151.582V329.709H155.801ZM151.582 331.127H155.801V330.339H151.582V331.127Z" fill="#2B2926"/>
<path d="M182.209 372.677L181.177 370.63H183.234L182.209 372.677ZM185.771 374.449V373.981L187.738 372.016C188.444 371.305 188.721 370.858 188.721 370.465C188.721 369.817 188.278 369.437 187.585 369.437C186.837 369.437 186.436 370.003 186.436 370.616H185.709C185.709 369.617 186.436 368.796 187.592 368.796C188.707 368.796 189.441 369.465 189.441 370.457C189.441 371.05 189.102 371.554 188.271 372.401L186.817 373.822H189.629V374.449H185.771ZM192.235 374.574C191.036 374.574 190.316 373.85 190.275 372.891H190.995C191.016 373.484 191.452 373.946 192.235 373.946C193.003 373.946 193.481 373.409 193.481 372.685C193.481 371.974 192.983 371.45 192.248 371.45C191.639 371.45 191.286 371.761 191.099 372.105H190.385L190.545 368.927H193.911V369.554H191.21L191.113 371.361C191.32 371.105 191.729 370.829 192.366 370.829C193.419 370.829 194.194 371.581 194.194 372.685C194.194 373.781 193.398 374.574 192.235 374.574ZM198.173 371.416C197.377 371.416 196.802 370.851 196.802 370.099C196.802 369.347 197.377 368.782 198.173 368.782C198.97 368.782 199.545 369.347 199.545 370.099C199.545 370.851 198.97 371.416 198.173 371.416ZM197.682 374.449L201.345 368.927H202.024L198.36 374.449H197.682ZM198.173 370.837C198.616 370.837 198.921 370.526 198.921 370.099C198.921 369.672 198.616 369.368 198.173 369.368C197.73 369.368 197.418 369.672 197.418 370.099C197.418 370.526 197.73 370.837 198.173 370.837ZM201.532 374.588C200.736 374.588 200.161 374.022 200.161 373.27C200.161 372.519 200.736 371.953 201.532 371.953C202.322 371.953 202.903 372.519 202.903 373.27C202.903 374.022 202.322 374.588 201.532 374.588ZM201.532 374.008C201.968 374.008 202.28 373.698 202.28 373.27C202.28 372.843 201.968 372.533 201.532 372.533C201.089 372.533 200.777 372.843 200.777 373.27C200.777 373.698 201.089 374.008 201.532 374.008Z" fill="#ED4848"/>
<path d="M225.943 372.4C225.943 390.079 211.547 404.41 193.789 404.41C176.03 404.41 161.634 390.079 161.634 372.4C161.634 354.72 176.03 340.389 193.789 340.389C211.547 340.389 225.943 354.72 225.943 372.4ZM168.719 372.4C168.719 386.184 179.943 397.358 193.789 397.358C207.635 397.358 218.859 386.184 218.859 372.4C218.859 358.616 207.635 347.442 193.789 347.442C179.943 347.442 168.719 358.616 168.719 372.4Z" fill="#EBCFCF"/>
<path d="M222.402 372.4C224.359 372.4 225.964 373.983 225.749 375.918C225.184 381.005 223.4 385.9 220.525 390.184C216.991 395.448 211.97 399.551 206.094 401.973C200.218 404.396 193.753 405.031 187.516 403.795C181.278 402.56 175.549 399.511 171.052 395.035C166.555 390.558 163.493 384.854 162.252 378.645C161.011 372.435 161.648 365.999 164.082 360.15C166.516 354.3 170.637 349.301 175.925 345.783C180.228 342.921 185.145 341.146 190.254 340.583C192.199 340.369 193.789 341.968 193.789 343.914C193.789 345.862 192.196 347.414 190.259 347.689C186.553 348.214 182.997 349.56 179.86 351.647C175.737 354.389 172.523 358.287 170.626 362.848C168.728 367.409 168.232 372.427 169.199 377.269C170.167 382.111 172.555 386.557 176.061 390.049C179.567 393.539 184.034 395.916 188.898 396.879C193.761 397.842 198.802 397.349 203.384 395.46C207.964 393.57 211.881 390.371 214.635 386.266C216.732 383.143 218.084 379.603 218.611 375.914C218.887 373.986 220.446 372.4 222.402 372.4Z" fill="#F28484"/>
</g>
</g>
</g>
<defs>
<filter id="filter0_d_761_8767" x="0" y="0" width="456" height="516" filterUnits="userSpaceOnUse" color-interpolation-filters="sRGB">
<feFlood flood-opacity="0" result="BackgroundImageFix"/>
<feColorMatrix in="SourceAlpha" type="matrix" values="0 0 0 0 0 0 0 0 0 0 0 0 0 0 0 0 0 0 127 0" result="hardAlpha"/>
<feOffset dy="3"/>
<feGaussianBlur stdDeviation="4"/>
<feComposite in2="hardAlpha" operator="out"/>
<feColorMatrix type="matrix" values="0 0 0 0 0 0 0 0 0 0 0 0 0 0 0 0 0 0 0.24 0"/>
<feBlend mode="normal" in2="BackgroundImageFix" result="effect1_dropShadow_761_8767"/>
<feBlend mode="normal" in="SourceGraphic" in2="effect1_dropShadow_761_8767" result="shape"/>
</filter>
<filter id="filter1_d_761_8767" x="271.256" y="234.045" width="134.059" height="234.447" filterUnits="userSpaceOnUse" color-interpolation-filters="sRGB">
<feFlood flood-opacity="0" result="BackgroundImageFix"/>
<feColorMatrix in="SourceAlpha" type="matrix" values="0 0 0 0 0 0 0 0 0 0 0 0 0 0 0 0 0 0 127 0" result="hardAlpha"/>
<feOffset dy="3"/>
<feGaussianBlur stdDeviation="4"/>
<feComposite in2="hardAlpha" operator="out"/>
<feColorMatrix type="matrix" values="0 0 0 0 0 0 0 0 0 0 0 0 0 0 0 0 0 0 0.24 0"/>
<feBlend mode="normal" in2="BackgroundImageFix" result="effect1_dropShadow_761_8767"/>
<feBlend mode="normal" in="SourceGraphic" in2="effect1_dropShadow_761_8767" result="shape"/>
</filter>
<filter id="filter2_d_761_8767" x="157.24" y="375.631" width="268.291" height="111.469" filterUnits="userSpaceOnUse" color-interpolation-filters="sRGB">
<feFlood flood-opacity="0" result="BackgroundImageFix"/>
<feColorMatrix in="SourceAlpha" type="matrix" values="0 0 0 0 0 0 0 0 0 0 0 0 0 0 0 0 0 0 127 0" result="hardAlpha"/>
<feOffset dy="3"/>
<feGaussianBlur stdDeviation="4"/>
<feComposite in2="hardAlpha" operator="out"/>
<feColorMatrix type="matrix" values="0 0 0 0 0 0 0 0 0 0 0 0 0 0 0 0 0 0 0.24 0"/>
<feBlend mode="normal" in2="BackgroundImageFix" result="effect1_dropShadow_761_8767"/>
<feBlend mode="normal" in="SourceGraphic" in2="effect1_dropShadow_761_8767" result="shape"/>
</filter>
<filter id="filter3_d_761_8767" x="122.469" y="252.654" width="142.146" height="174.576" filterUnits="userSpaceOnUse" color-interpolation-filters="sRGB">
<feFlood flood-opacity="0" result="BackgroundImageFix"/>
<feColorMatrix in="SourceAlpha" type="matrix" values="0 0 0 0 0 0 0 0 0 0 0 0 0 0 0 0 0 0 127 0" result="hardAlpha"/>
<feOffset dy="3"/>
<feGaussianBlur stdDeviation="4"/>
<feComposite in2="hardAlpha" operator="out"/>
<feColorMatrix type="matrix" values="0 0 0 0 0 0 0 0 0 0 0 0 0 0 0 0 0 0 0.24 0"/>
<feBlend mode="normal" in2="BackgroundImageFix" result="effect1_dropShadow_761_8767"/>
<feBlend mode="normal" in="SourceGraphic" in2="effect1_dropShadow_761_8767" result="shape"/>
</filter>
<clipPath id="clip0_761_8767">
<rect width="300" height="250" fill="white" transform="translate(124 235)"/>
</clipPath>
</defs>
</svg>
