<svg width="305" height="96" viewBox="0 0 305 96" fill="none" xmlns="http://www.w3.org/2000/svg">
<path d="M33.75 95.5C32.4902 95.5 31.282 94.9994 30.3912 94.1087C29.5005 93.2181 29 92.0097 29 90.75V76.5H10C7.48046 76.5 5.06409 75.4992 3.2825 73.7175C1.50087 71.9357 0.5 69.5194 0.5 67V10C0.5 7.48046 1.50087 5.06408 3.2825 3.2825C5.06409 1.50087 7.48046 0.5 10 0.5H86C88.5194 0.5 90.9357 1.50087 92.7175 3.2825C94.4992 5.06408 95.5 7.48046 95.5 10V67C95.5 69.5194 94.4992 71.9357 92.7175 73.7175C90.9357 75.4992 88.5194 76.5 86 76.5H57.025L39.45 94.1225C38.5 95.025 37.3125 95.5 36.125 95.5H33.75Z" fill="#C7DEE9"/>
<path d="M235.341 76.1894C234.081 76.1894 238 76.5 235.625 76.5C234.734 75.6094 234.234 74.401 234.234 73.1413L238 76.5H219C216.481 76.5 214.064 75.4992 212.283 73.7175C210.501 71.9357 209.5 69.5194 209.5 67V10C209.5 7.48046 210.501 5.06408 212.283 3.2825C214.064 1.50087 216.481 0.5 219 0.5H295C297.519 0.5 299.936 1.50087 301.717 3.2825C303.499 5.06408 304.5 7.48046 304.5 10V67C304.5 69.5194 303.499 71.9357 301.717 73.7175C299.936 75.4992 297.519 76.5 295 76.5H266.025L244.684 76.5138C233.25 76.5 231.826 74.7159 235.625 76.5L235.341 76.1894Z" fill="#C7DEE9"/>
<path d="M71.75 0.5H247.5V76.5H71.75V0.5Z" fill="#C7DEE9"/>
</svg>
