<svg width="156" height="122" viewBox="0 0 156 122" fill="none" xmlns="http://www.w3.org/2000/svg">
<g clip-path="url(#clip0_495_4633)">
<path d="M34.5521 105.078H28.4876C27.6096 105.078 27.13 104.64 27.13 103.722V98.8138H24.177V101.847C24.177 104.081 23.2198 105.08 20.9446 105.08H3.23242C0.957264 105.08 0 104.083 0 101.847V88.077C0 85.8428 0.957264 84.8438 3.23242 84.8438H20.9484C23.2217 84.8438 24.1808 85.8409 24.1808 88.077V89.9128H27.1338V86.2017C27.1338 85.2838 27.6134 84.8438 28.4913 84.8438H34.5559C35.4339 84.8438 35.9116 85.2838 35.9116 86.2017V103.722C35.9116 104.64 35.432 105.078 34.5559 105.078H34.5521ZM36.3081 115.535V116.693C36.3081 119.607 35.1507 122.002 28.4876 122.002H9.21579C2.5527 122.002 1.3953 119.607 1.3953 116.693V115.575C1.3953 110.986 7.14077 106.716 17.8727 106.716H19.8269C30.7986 106.716 36.3043 110.986 36.3043 115.535H36.3081ZM14.4043 98.3737V91.5483H9.77655V98.3737H14.4043ZM27.451 115.095V114.816C27.451 113.779 26.0538 112.621 19.8307 112.621H17.8349C11.6514 112.621 10.2542 113.779 10.2542 114.816V115.095C10.2542 115.773 10.5337 116.093 13.8454 116.093H23.8995C27.1716 116.093 27.451 115.773 27.451 115.095Z" fill="#FF9526"/>
<path d="M74.4495 105.078H68.3849C67.5069 105.078 67.0274 104.64 67.0274 103.722V98.8138H64.0744V101.847C64.0744 104.081 63.1171 105.08 60.842 105.08H43.126C40.8527 105.08 39.8936 104.083 39.8936 101.847V88.077C39.8936 85.8428 40.8508 84.8438 43.126 84.8438H60.842C63.1152 84.8438 64.0744 85.8409 64.0744 88.077V89.9128H67.0274V86.2017C67.0274 85.2838 67.5069 84.8438 68.3849 84.8438H74.4495C75.3274 84.8438 75.8051 85.2838 75.8051 86.2017V103.722C75.8051 104.64 75.3255 105.078 74.4495 105.078ZM76.2054 115.535V116.693C76.2054 119.607 75.048 122.002 68.3849 122.002H49.1131C42.45 122.002 41.2926 119.607 41.2926 116.693V115.575C41.2926 110.986 47.0381 106.716 57.7719 106.716H59.7261C70.6978 106.716 76.2035 110.986 76.2035 115.535H76.2054ZM54.3016 98.3737V91.5483H49.6739V98.3737H54.3016ZM67.3483 115.095V114.816C67.3483 113.779 65.9511 112.621 59.728 112.621H57.7323C51.5488 112.621 50.1516 113.779 50.1516 114.816V115.095C50.1516 115.773 50.431 116.093 53.7427 116.093H63.7968C67.0689 116.093 67.3483 115.773 67.3483 115.095Z" fill="#FF9526"/>
<path d="M90.6873 84.5244H92.683C99.7048 84.5244 103.974 88.7152 103.974 95.6993V96.4566C103.974 101.645 101.899 103.441 96.3931 103.441H86.9772C81.4715 103.441 79.3965 101.645 79.3965 96.4566V95.6993C79.3965 88.7152 83.6655 84.5244 90.6873 84.5244ZM116.103 118.128V120.204C116.103 121.122 115.623 121.562 114.747 121.562H81.9511C81.0731 121.562 80.5935 121.124 80.5935 120.204V112.262C80.5935 111.344 81.0731 110.906 81.9511 110.906H106.33V109.828H81.9511C81.0731 109.828 80.5935 109.39 80.5935 108.472V106.396C80.5935 105.478 81.0731 105.038 81.9511 105.038H114.747C115.625 105.038 116.103 105.477 116.103 106.396V114.338C116.103 115.256 115.623 115.694 114.747 115.694H90.3682V116.772H114.747C115.625 116.772 116.103 117.212 116.103 118.128ZM87.7758 94.6228V94.8626C87.7758 96.1393 88.4537 96.4188 90.8874 96.4188H92.4829C94.9166 96.4188 95.5944 96.1393 95.5944 94.8626V94.6228C95.5944 92.7474 94.2388 91.55 92.2034 91.55H91.1669C89.1315 91.55 87.7758 92.7474 87.7758 94.6228ZM114.747 103.443H108.683C107.805 103.443 107.327 103.004 107.327 102.087V86.2015C107.327 85.2836 107.807 84.8436 108.683 84.8436H114.747C115.625 84.8436 116.103 85.2836 116.103 86.2015V102.087C116.103 103.004 115.623 103.443 114.747 103.443Z" fill="#FF9526"/>
<path d="M119.293 90.791V86.4018C119.293 85.2441 119.731 84.8456 120.849 84.8456H143.512C144.63 84.8456 145.068 85.2441 145.068 86.4018V90.791C145.068 91.9487 144.63 92.3472 143.512 92.3472H137.089V100.249L128.271 118.527C127.354 120.402 126.476 120.761 124.161 120.761H120.33C118.574 120.761 118.334 119.603 118.974 118.166L127.314 99.8487V92.3453H120.851C119.733 92.3453 119.295 91.9468 119.295 90.7891L119.293 90.791ZM130.745 117.809L136.29 106.355C137.327 104.2 139.402 104.121 140.359 106.355L145.226 117.809C145.944 119.486 145.625 120.763 143.79 120.763H132.299C130.424 120.763 129.944 119.447 130.743 117.809H130.745ZM154.644 120.763H148.58C147.702 120.763 147.224 120.325 147.224 119.407V86.2017C147.224 85.2838 147.704 84.8438 148.58 84.8438H154.644C155.522 84.8438 156 85.2838 156 86.2017V119.407C156 120.325 155.52 120.763 154.644 120.763Z" fill="#FF9526"/>
<path d="M95.7243 58.216C93.5719 58.216 91.276 57.7798 89.0462 56.8883C83.5896 54.7146 79.6208 50.1913 79.1695 45.6323C79.1507 45.4264 79.1412 45.2394 79.1318 45.043C79.1318 45.0128 79.1299 44.9769 79.1299 44.9486V44.365C79.1299 43.3112 79.9833 42.4575 81.0369 42.4575C82.0904 42.4575 82.9438 43.3112 82.9438 44.365V44.9033C82.9495 45.0279 82.9552 45.145 82.9665 45.2678C83.227 47.8967 85.8836 51.5228 90.4584 53.3453C94.482 54.9525 98.7755 54.7221 100.9 52.7844C100.937 52.7504 100.975 52.7183 101.015 52.6881C102.282 51.7041 103.163 50.0025 103.371 48.1384C103.488 47.0922 104.427 46.3348 105.476 46.4557C106.522 46.5728 107.276 47.5152 107.161 48.5634C106.84 51.4454 105.474 54.0252 103.413 55.6551C101.525 57.3454 98.7661 58.216 95.7243 58.216Z" fill="#FF9526"/>
<path d="M128.241 69.153H42.4896C42.146 69.153 41.808 69.0605 41.5116 68.8829L27.5794 60.558C27.0318 60.2312 26.6844 59.6514 26.6523 59.015C26.6202 58.3785 26.911 57.7666 27.4227 57.3889L40.864 47.4529C41.1699 47.2263 41.5362 47.0979 41.9157 47.0809L56.7278 46.4463C57.7285 46.3991 58.5932 47.1432 58.7046 48.1404C58.9123 50.0026 59.7921 51.7042 61.0609 52.6881C61.1006 52.7184 61.1384 52.7505 61.1761 52.7845C63.3002 54.7222 67.5919 54.9526 71.6154 53.3454C76.1921 51.5229 78.8506 47.8968 79.1111 45.2565C79.1206 45.147 79.1262 45.028 79.1319 44.9071V44.367C79.1319 43.3131 79.9853 42.4595 81.0389 42.4595C82.0924 42.4595 82.9458 43.3131 82.9458 44.367V44.9505C82.9458 44.9789 82.9458 45.0072 82.944 45.0355C82.9345 45.2338 82.9251 45.4227 82.9081 45.621C82.4549 50.1952 78.4862 54.7184 73.0296 56.8922C67.6504 59.0414 61.8898 58.5428 58.6649 55.657C57.0355 54.369 55.8404 52.4861 55.2532 50.3293L42.6652 50.8675L31.9956 58.7543L43.0183 65.3418H126.338V49.9742H106.105C105.052 49.9742 104.198 49.1206 104.198 48.0667C104.198 47.0129 105.052 46.1592 106.105 46.1592H128.243C129.297 46.1592 130.15 47.0129 130.15 48.0667V67.2474C130.15 68.3012 129.297 69.1549 128.243 69.1549" fill="#FF9526"/>
<path d="M119.819 69.1527C118.765 69.1527 117.912 68.2991 117.912 67.2452V50.4612C117.912 49.4074 118.765 48.5537 119.819 48.5537C120.872 48.5537 121.726 49.4074 121.726 50.4612V67.2452C121.726 68.2991 120.872 69.1527 119.819 69.1527Z" fill="#FF9526"/>
<path d="M70.6168 32.7367C70.6168 34.9483 68.825 36.7406 66.614 36.7406C64.4031 36.7406 62.6094 34.9483 62.6094 32.7367C62.6094 30.5252 64.4012 28.7329 66.614 28.7329C68.8269 28.7329 70.6168 30.5252 70.6168 32.7367Z" fill="#FF9526"/>
<path d="M99.4044 32.7367C99.4044 34.9483 97.6126 36.7406 95.4017 36.7406C93.1907 36.7406 91.3989 34.9483 91.3989 32.7367C91.3989 30.5252 93.1907 28.7329 95.4017 28.7329C97.6126 28.7329 99.4044 30.5252 99.4044 32.7367Z" fill="#FF9526"/>
<path d="M86.1557 39.5716C86.1557 42.4158 83.8503 44.7199 81.0088 44.7199C78.1672 44.7199 75.8618 42.4139 75.8618 39.5716C75.8618 36.7292 78.1672 36.5215 81.0088 36.5215C83.8503 36.5215 86.1557 36.7292 86.1557 39.5716Z" fill="#FF9526"/>
<path d="M38.6984 63.6514H35.0959C33.2739 63.6514 31.7842 62.1613 31.7842 60.3388V57.0375C31.7842 55.0564 33.4061 53.4341 35.3867 53.4341H38.553C38.6323 53.4341 38.6984 53.4983 38.6984 53.5795V63.6533V63.6514Z" fill="#FF9526"/>
<path d="M105.441 0.490857C107.682 -0.746178 110.559 0.624948 113.406 1.65801C117.351 3.08769 122.162 5.48621 124.057 9.48439C127.573 16.899 119.505 23.1673 113.159 24.9256C104.166 27.3487 101.33 19.9869 101.612 12.5099C101.734 9.22187 101.874 5.63919 103.451 2.68164C104.028 1.59758 104.7 0.900684 105.442 0.492746" fill="#FF9526"/>
<path d="M57.0656 0.490857C54.8245 -0.746178 51.947 0.624948 49.0998 1.65801C45.1555 3.08769 40.3466 5.48621 38.449 9.48439C34.9334 16.899 42.9993 23.1673 49.3471 24.9256C58.3401 27.3487 61.176 19.9869 60.8947 12.5099C60.772 9.22187 60.6322 5.63919 59.0557 2.68164C58.4779 1.59758 57.8058 0.900684 57.0638 0.492746" fill="#FF9526"/>
</g>
<defs>
<clipPath id="clip0_495_4633">
<rect width="156" height="122" fill="white"/>
</clipPath>
</defs>
</svg>
