<svg width="117" height="20" viewBox="0 0 117 20" fill="none" xmlns="http://www.w3.org/2000/svg">
<g clip-path="url(#clip0_504_1183)">
<mask id="mask0_504_1183" style="mask-type:luminance" maskUnits="userSpaceOnUse" x="87" y="0" width="30" height="20">
<path d="M116.91 0H87V20H116.91V0Z" fill="white"/>
</mask>
<g mask="url(#mask0_504_1183)">
<path d="M106.962 16.8362C106.34 16.8362 105.676 16.7099 105.032 16.4524C103.455 15.824 102.308 14.5157 102.178 13.1971C102.172 13.1373 102.169 13.0835 102.167 13.0269C102.167 13.0183 102.166 13.008 102.166 12.9993V12.8308C102.166 12.5263 102.413 12.2793 102.717 12.2793C103.021 12.2793 103.268 12.5263 103.268 12.8308V12.9866C103.27 13.0229 103.271 13.0567 103.274 13.0918C103.35 13.8522 104.118 14.9008 105.44 15.4278C106.603 15.8927 107.843 15.8259 108.457 15.2657C108.468 15.256 108.479 15.2468 108.49 15.2376C108.856 14.9528 109.111 14.461 109.171 13.922C109.205 13.6193 109.476 13.4005 109.78 13.4351C110.082 13.4689 110.3 13.7415 110.266 14.0445C110.173 14.8779 109.779 15.6239 109.183 16.0956C108.638 16.5844 107.841 16.8362 106.962 16.8362Z" fill="#FF9526"/>
<path d="M116.359 19.9995H91.5774C91.478 19.9995 91.3802 19.9725 91.2948 19.9216L87.2684 17.5137C87.1101 17.4191 87.0096 17.2514 87.0006 17.0672C86.9917 16.883 87.0752 16.7063 87.2236 16.5968L91.1081 13.7234C91.1964 13.658 91.3024 13.6206 91.4121 13.616L95.6924 13.4326C95.9816 13.4189 96.2315 13.6344 96.2637 13.9225C96.3237 14.4613 96.5782 14.9531 96.9446 15.2379C96.9559 15.2468 96.967 15.256 96.9778 15.266C97.5915 15.8264 98.832 15.893 99.9944 15.4283C101.317 14.9011 102.085 13.8524 102.161 13.0886C102.164 13.0567 102.165 13.0226 102.167 12.9872V12.8308C102.167 12.5263 102.413 12.2793 102.718 12.2793C103.022 12.2793 103.269 12.5263 103.269 12.8308V12.9993C103.269 13.0074 103.269 13.0156 103.268 13.0237C103.266 13.081 103.263 13.1357 103.257 13.1927C103.127 14.5154 101.98 15.8237 100.402 16.4524C98.8477 17.0737 97.1832 16.9298 96.2512 16.095C95.78 15.7223 95.4349 15.1778 95.2652 14.5544L91.6272 14.7102L88.5435 16.9909L91.729 18.8959H115.808V14.4513H109.961C109.656 14.4513 109.41 14.2043 109.41 13.8998C109.41 13.5952 109.656 13.3483 109.961 13.3483H116.359C116.663 13.3483 116.909 13.5952 116.909 13.8998V19.4472C116.909 19.7517 116.663 19.9995 116.359 19.9995Z" fill="#FF9526"/>
<path d="M113.926 19.9992C113.622 19.9992 113.375 19.7522 113.375 19.4477V14.5935C113.375 14.2889 113.622 14.042 113.926 14.042C114.23 14.042 114.477 14.2889 114.477 14.5935V19.4477C114.477 19.7522 114.23 19.9992 113.926 19.9992Z" fill="#FF9526"/>
<path d="M99.7066 9.46779C99.7066 10.1075 99.1887 10.626 98.5496 10.626C97.9106 10.626 97.3926 10.1075 97.3926 9.46779C97.3926 8.82809 97.9106 8.30957 98.5496 8.30957C99.1887 8.30957 99.7066 8.82809 99.7066 9.46779Z" fill="#FF9526"/>
<path d="M108.027 9.46779C108.027 10.1075 107.509 10.626 106.87 10.626C106.231 10.626 105.713 10.1075 105.713 9.46779C105.713 8.82809 106.231 8.30957 106.87 8.30957C107.509 8.30957 108.027 8.82809 108.027 9.46779Z" fill="#FF9526"/>
<path d="M104.196 11.4448C104.196 12.2674 103.53 12.9339 102.708 12.9339C101.886 12.9339 101.221 12.2671 101.221 11.4448C101.221 10.6225 101.887 10.5625 102.708 10.5625C103.53 10.5625 104.196 10.6225 104.196 11.4448Z" fill="#FF9526"/>
<path d="M89.5235 15.4531H90.4387C90.462 15.4531 90.4806 15.4718 90.4806 15.495V18.4082H89.4395C88.9112 18.4082 88.4824 17.9789 88.4824 17.4501V16.4953C88.4824 15.9203 88.9488 15.4531 89.5235 15.4531Z" fill="#FF9526"/>
<path d="M109.77 0.141836C110.418 -0.216017 111.249 0.180785 112.072 0.479131C113.212 0.892434 114.602 1.58623 115.15 2.74256C116.167 4.88724 113.835 6.69977 112.001 7.20828C109.402 7.90911 108.583 5.78011 108.664 3.61731C108.699 2.66655 108.74 1.63059 109.195 0.774773C109.362 0.461009 109.556 0.260038 109.77 0.141836Z" fill="#FF9526"/>
<path d="M95.7892 0.141836C95.1415 -0.216017 94.3101 0.180785 93.4873 0.479131C92.3473 0.892434 90.9573 1.58623 90.4091 2.74256C89.3928 4.88724 91.7244 6.69977 93.5586 7.20828C96.1575 7.90911 96.977 5.78011 96.896 3.61731C96.8606 2.66655 96.82 1.63059 96.3647 0.774773C96.1977 0.461009 96.0035 0.260038 95.7892 0.141836Z" fill="#FF9526"/>
</g>
<mask id="mask1_504_1183" style="mask-type:luminance" maskUnits="userSpaceOnUse" x="0" y="0" width="83" height="20">
<path d="M83 0H0V20H83V0Z" fill="white"/>
</mask>
<g mask="url(#mask1_504_1183)">
<path d="M18.3833 10.9687H15.1567C14.6895 10.9687 14.4344 10.7349 14.4344 10.245V7.62545H12.8633V9.24415C12.8633 10.4365 12.354 10.9697 11.1435 10.9697H1.71979C0.509307 10.9697 0 10.4375 0 9.24415V1.89547C0 0.702099 0.509307 0.169922 1.71979 0.169922H11.1455C12.355 0.169922 12.8653 0.702099 12.8653 1.89547V2.87516H14.4364V0.894611C14.4364 0.404765 14.6916 0.169922 15.1587 0.169922H18.3853C18.8524 0.169922 19.1066 0.403758 19.1066 0.894611V10.245C19.1066 10.7349 18.8514 10.9687 18.3853 10.9687H18.3833ZM19.3175 16.5485V17.1663C19.3175 18.7216 18.7017 19.9996 15.1567 19.9996H4.90321C1.35815 19.9996 0.742363 18.7216 0.742363 17.1663V16.5697C0.742363 14.1204 3.79921 11.8415 9.50908 11.8415H10.5488C16.3862 11.8415 19.3155 14.1204 19.3155 16.5485H19.3175ZM7.66372 7.3906V3.74801H5.20156V7.3906H7.66372ZM14.6052 16.3147V16.1655C14.6052 15.6121 13.8618 14.9943 10.5508 14.9943H9.48899C6.19908 14.9943 5.45572 15.6121 5.45572 16.1655V16.3147C5.45572 16.6765 5.60439 16.8468 7.36637 16.8468H12.7156C14.4565 16.8468 14.6052 16.6765 14.6052 16.3147Z" fill="#FF9526"/>
<path d="M39.6099 10.9687H36.3833C35.9162 10.9687 35.661 10.7349 35.661 10.245V7.62545H34.0899V9.24415C34.0899 10.4365 33.5806 10.9697 32.3701 10.9697H22.9444C21.7349 10.9697 21.2246 10.4375 21.2246 9.24415V1.89547C21.2246 0.703107 21.7339 0.169922 22.9444 0.169922H32.3701C33.5796 0.169922 34.0899 0.702099 34.0899 1.89547V2.87516H35.661V0.894611C35.661 0.404765 35.9162 0.169922 36.3833 0.169922H39.6099C40.077 0.169922 40.3312 0.403758 40.3312 0.894611V10.245C40.3312 10.7349 40.076 10.9687 39.6099 10.9687ZM40.5441 16.5485V17.1663C40.5441 18.7216 39.9283 19.9996 36.3833 19.9996H26.1298C22.5848 19.9996 21.969 18.7216 21.969 17.1663V16.5697C21.969 14.1204 25.0258 11.8415 30.7367 11.8415H31.7764C37.6139 11.8415 40.5431 14.1204 40.5431 16.5485H40.5441ZM28.8903 7.3906V3.74801H26.4282V7.3906H28.8903ZM35.8318 16.3147V16.1655C35.8318 15.6121 35.0884 14.9943 31.7774 14.9943H30.7156C27.4257 14.9943 26.6823 15.6121 26.6823 16.1655V16.3147C26.6823 16.6765 26.831 16.8468 28.593 16.8468H33.9422C35.6831 16.8468 35.8318 16.6765 35.8318 16.3147Z" fill="#FF9526"/>
<path d="M48.2494 0H49.3112C53.0471 0 55.3184 2.23656 55.3184 5.96382V6.36799C55.3184 9.13672 54.2144 10.0952 51.2852 10.0952H46.2755C43.3462 10.0952 42.2422 9.13672 42.2422 6.36799V5.96382C42.2422 2.23656 44.5135 0 48.2494 0ZM61.7717 17.9338V19.0415C61.7717 19.5313 61.5165 19.7662 61.0504 19.7662H43.6013C43.1342 19.7662 42.8791 19.5323 42.8791 19.0415V14.8032C42.8791 14.3134 43.1342 14.0795 43.6013 14.0795H56.5721V13.504H43.6013C43.1342 13.504 42.8791 13.2702 42.8791 12.7803V11.6726C42.8791 11.1828 43.1342 10.9479 43.6013 10.9479H61.0504C61.5175 10.9479 61.7717 11.1818 61.7717 11.6726V15.9109C61.7717 16.4007 61.5165 16.6346 61.0504 16.6346H48.0796V17.2101H61.0504C61.5175 17.2101 61.7717 17.4449 61.7717 17.9338ZM46.7004 5.3883V5.5163C46.7004 6.19765 47.061 6.34682 48.3559 6.34682H49.2047C50.4996 6.34682 50.8602 6.19765 50.8602 5.5163V5.3883C50.8602 4.38744 50.139 3.74843 49.0561 3.74843H48.5046C47.4217 3.74843 46.7004 4.38744 46.7004 5.3883ZM61.0504 10.0952H57.8238C57.3567 10.0952 57.1025 9.86141 57.1025 9.37157V0.895026C57.1025 0.405181 57.3577 0.170337 57.8238 0.170337H61.0504C61.5175 0.170337 61.7717 0.404173 61.7717 0.895026V9.37157C61.7717 9.86141 61.5165 10.0952 61.0504 10.0952Z" fill="#FF9526"/>
<path d="M63.4688 3.34384V1.00044C63.4688 0.382591 63.7018 0.169922 64.2965 0.169922H76.3542C76.9489 0.169922 77.1819 0.382591 77.1819 1.00044V3.34283C77.1819 3.96068 76.9489 4.17335 76.3542 4.17335H72.9367V8.39045L68.2454 18.145C67.7572 19.1459 67.2901 19.3374 66.0585 19.3374H64.0203C63.0861 19.3374 62.9585 18.7195 63.299 17.9525L67.7361 8.17678V4.17234H64.2975C63.7029 4.17234 63.4698 3.95967 63.4698 3.34182L63.4688 3.34384ZM69.5614 17.763L72.5118 11.65C73.0633 10.5 74.1673 10.4577 74.6766 11.65L77.2663 17.763C77.648 18.6581 77.4783 19.3394 76.5018 19.3394H70.3881C69.3906 19.3394 69.1365 18.6369 69.5614 17.763ZM82.277 19.3394H79.0504C78.5833 19.3394 78.3291 19.1056 78.3291 18.6157V0.894611C78.3291 0.404765 78.5843 0.169922 79.0504 0.169922H82.277C82.7441 0.169922 82.9983 0.403758 82.9983 0.894611V18.6157C82.9983 19.1056 82.7431 19.3394 82.277 19.3394Z" fill="#FF9526"/>
</g>
</g>
<defs>
<clipPath id="clip0_504_1183">
<rect width="117" height="20" fill="white"/>
</clipPath>
</defs>
</svg>
